<svg width="707" height="900" viewBox="0 0 707 900" fill="none" xmlns="http://www.w3.org/2000/svg">
<path d="M111.643 170.888L169.905 133.053C178.498 127.695 188.863 126.442 200.998 129.293C212.874 132.088 222.029 138.439 228.462 148.346L240.563 166.98L221.457 179.388L209.509 160.989C205.323 154.542 198.992 151.163 190.519 150.853C186.722 150.86 183.645 151.629 181.286 153.16L124.676 189.924C119.644 193.191 117.157 198.83 117.217 206.84C117.16 211.572 118.255 215.668 120.501 219.127L132.296 237.29L113.19 249.697L101.549 231.771C92.46 217.775 91.4679 202.993 98.5723 187.425C102.097 179.77 106.454 174.258 111.643 170.888ZM120.543 261.019L287.461 152.957L300.634 173.242L133.87 281.54L120.543 261.019Z" fill="black"/>
<path d="M307.946 232.01C312.82 228.844 317.761 228.878 322.766 232.11C324.417 233.274 325.752 234.643 326.773 236.215C329.837 240.933 329.882 245.822 326.909 250.883C325.745 252.533 324.377 253.869 322.804 254.89C318.087 257.953 313.197 257.999 308.136 255.025C306.486 253.861 305.151 252.493 304.129 250.92C300.964 246.046 300.867 241.078 303.841 236.017C305.005 234.367 306.373 233.031 307.946 232.01ZM163.954 327.867L288.261 247.141L301.128 266.954L176.821 347.68L163.954 327.867Z" fill="black"/>
<path d="M160.665 418.335L182.28 411.34L211.077 455.685C217.111 464.286 224.757 468.487 234.017 468.287C237.035 468.115 239.409 467.467 241.139 466.344L258.122 455.315C249.375 451.829 242.751 446.965 238.249 440.722L256.412 428.927C260.905 435.846 267.388 439.461 275.862 439.771C279.76 439.922 283.046 439.129 285.72 437.393L343.509 399.864C349.485 395.984 352.058 389.618 351.228 380.767C350.758 376.6 349.502 372.945 347.46 369.8L366.094 357.698C370.689 364.775 372.522 372.416 371.591 380.622C371.638 381.038 371.634 381.376 371.579 381.636L378.655 377.04L391.062 396.146L253.547 485.45C246.785 489.841 237.796 491.319 226.58 489.884C212.612 487.999 201.874 481.447 194.364 470.227L160.665 418.335ZM241.215 369.378L300.184 331.083C307.677 326.441 317.055 325.046 328.318 326.897C341.499 329.292 351.844 336.1 359.354 347.32L340.72 359.421C335.716 351.716 328.635 348.042 319.478 348.4C316.2 348.516 313.618 349.187 311.731 350.413L253.705 388.095C248.988 391.159 246.403 396.302 245.952 403.526C245.785 408.776 247.182 413.682 250.144 418.242L231.509 430.343C222.272 415.774 221.256 400.784 228.463 385.373C231.932 377.977 236.183 372.646 241.215 369.378Z" fill="black"/>
<path d="M436.28 429.627C441.154 426.461 446.095 426.495 451.1 429.727C452.751 430.891 454.086 432.26 455.107 433.832C458.171 438.55 458.216 443.439 455.243 448.5C454.079 450.15 452.711 451.486 451.138 452.507C446.421 455.57 441.531 455.616 436.47 452.642C434.82 451.478 433.485 450.11 432.463 448.537C429.298 443.663 429.201 438.695 432.175 433.634C433.339 431.984 434.707 430.648 436.28 429.627ZM292.288 525.484L416.595 444.758L429.462 464.571L305.155 545.297L292.288 525.484Z" fill="black"/>
<path d="M438.498 516.183L457.604 503.775L467.714 519.343L508.52 492.843L521.541 512.892L480.734 539.392L490.538 554.489L471.196 567.049L461.392 551.953L393.696 595.916C382.531 603.166 379.281 611.76 383.946 621.698C384.755 623.632 385.721 625.464 386.844 627.193L388.989 630.496L371.85 647.998L366.335 639.506C353.932 620.062 353.455 603.492 364.906 589.796C369.231 584.752 375.325 579.676 383.187 574.57L448.608 531.751L438.498 516.183Z" fill="black"/>
<path d="M423.076 661.814C414.428 667.431 409.873 676.425 409.412 688.797C409.077 699.298 412.076 709.424 418.407 719.173L436.805 707.225C428.235 693.34 428.931 683.051 438.893 676.358L445.262 672.223C448.824 670.133 451.952 669.443 454.648 670.151C457.603 670.915 465.74 677.592 479.058 690.182C489.446 699.98 497.068 706.209 501.924 708.868L474.799 726.483C464.577 733.121 455.464 731.997 447.457 723.112C446.279 721.641 445.23 720.199 444.311 718.783L425.913 730.731C433.218 741.637 441.587 748.498 451.018 751.316C448.68 759.765 450.064 767.921 455.17 775.784L473.804 763.682C471.464 759.39 472.68 755.582 477.452 752.259L542.083 710.288C552.147 703.752 558.451 694.181 560.995 681.574C563.216 669.847 560.804 658.558 553.758 647.708L535.595 659.503C540.395 666.893 540.981 674.338 537.355 681.835C535.435 685.764 532.588 688.954 528.814 691.405L524.332 694.316C520.401 696.869 509.765 690.474 492.423 675.131C476.779 661.369 467.511 653.638 464.619 651.939C454.693 646.983 444.62 647.824 434.398 654.461L423.076 661.814ZM490.43 620.422L495.161 642.165C503.967 636.447 512.448 636.081 520.605 641.068C523.599 642.924 526.066 645.346 528.007 648.334L546.405 636.386C539.359 625.536 529.402 618.811 516.536 616.211C506.68 614.116 497.978 615.52 490.43 620.422Z" fill="black"/>
<path d="M482.108 817.781L648.637 709.636L662.27 730.629L495.741 838.774L482.108 817.781Z" fill="black"/>
<path d="M-127.779 212.436L-77.2046 179.592C-69.7448 174.942 -60.7479 173.854 -50.2138 176.328C-39.9048 178.755 -31.958 184.268 -26.3733 192.868L-15.8688 209.043L-32.4539 219.814L-42.8254 203.843C-46.4599 198.246 -51.9548 195.313 -59.3102 195.044C-62.6058 195.05 -65.2774 195.717 -67.3249 197.047L-116.466 228.959C-120.834 231.796 -122.992 236.691 -122.94 243.644C-122.99 247.751 -122.039 251.307 -120.089 254.31L-109.851 270.076L-126.436 280.846L-136.541 265.285C-144.431 253.136 -145.292 240.305 -139.125 226.79C-136.065 220.146 -132.283 215.361 -127.779 212.436ZM-120.053 290.674L24.8405 196.87L36.2758 214.479L-108.485 308.488L-120.053 290.674Z" fill="black"/>
<path d="M42.6227 265.493C46.8543 262.745 51.1427 262.774 55.4879 265.58C56.9204 266.59 58.0799 267.778 58.9663 269.143C61.6257 273.238 61.6649 277.482 59.0838 281.875C58.0734 283.308 56.8857 284.467 55.5206 285.354C51.4256 288.013 47.1815 288.052 42.7884 285.471C41.3559 284.461 40.1964 283.273 39.31 281.908C36.562 277.676 36.4785 273.364 39.0595 268.971C40.0699 267.539 41.2577 266.379 42.6227 265.493ZM-82.37 348.702L25.5351 278.627L36.7045 295.826L-71.2006 365.901L-82.37 348.702Z" fill="black"/>
<path d="M-85.2255 427.233L-66.4624 421.161L-41.4643 459.655C-36.2271 467.122 -29.5896 470.768 -21.5517 470.594C-18.9315 470.445 -16.8706 469.883 -15.3691 468.908L-0.626865 459.334C-8.21991 456.308 -13.9702 452.086 -17.8776 446.666L-2.11162 436.428C1.78879 442.434 7.41668 445.571 14.7721 445.841C18.1563 445.972 21.0088 445.284 23.3293 443.777L73.4939 411.199C78.681 407.831 80.9145 402.305 80.1945 394.622C79.7866 391.005 78.6962 387.832 76.9233 385.102L93.0988 374.597C97.0878 380.74 98.6783 387.373 97.8702 394.496C97.911 394.858 97.9075 395.151 97.8596 395.376L104.002 391.387L114.773 407.972L-4.59867 485.493C-10.4683 489.305 -18.2712 490.587 -28.0075 489.342C-40.1318 487.706 -49.4534 482.018 -55.9724 472.279L-85.2255 427.233ZM-15.3034 384.736L35.885 351.494C42.3893 347.464 50.53 346.253 60.307 347.86C71.7488 349.939 80.7292 355.849 87.2482 365.588L71.0726 376.093C66.729 369.404 60.5826 366.215 52.6333 366.526C49.788 366.627 47.5463 367.209 45.9083 368.273L-4.46112 400.983C-8.55619 403.643 -10.7995 408.107 -11.191 414.378C-11.3362 418.936 -10.1235 423.194 -7.55273 427.153L-23.7283 437.657C-31.7472 425.01 -32.6288 411.998 -26.3731 398.62C-23.3613 392.201 -19.6714 387.573 -15.3034 384.736Z" fill="black"/>
<path d="M154.024 437.035C158.255 434.287 162.544 434.316 166.889 437.122C168.321 438.133 169.481 439.321 170.367 440.686C173.027 444.781 173.066 449.025 170.485 453.418C169.474 454.85 168.287 456.01 166.922 456.896C162.827 459.556 158.582 459.595 154.189 457.014C152.757 456.003 151.597 454.816 150.711 453.451C147.963 449.219 147.879 444.907 150.461 440.514C151.471 439.081 152.659 437.922 154.024 437.035ZM29.031 520.244L136.936 450.17L148.106 467.369L40.2004 537.443L29.031 520.244Z" fill="black"/>
<path d="M155.949 512.17L172.534 501.4L181.31 514.914L216.733 491.91L228.035 509.314L192.613 532.318L201.123 545.422L184.333 556.325L175.823 543.221L117.059 581.383C107.367 587.677 104.546 595.137 108.595 603.763C109.297 605.442 110.136 607.032 111.111 608.534L112.973 611.4L98.0949 626.593L93.308 619.222C82.5411 602.344 82.1275 587.96 92.0671 576.071C95.8217 571.692 101.112 567.286 107.937 562.854L164.725 525.684L155.949 512.17Z" fill="black"/>
<path d="M142.563 638.586C135.055 643.462 131.101 651.27 130.701 662.009C130.41 671.125 133.013 679.914 138.509 688.378L154.48 678.006C147.041 665.953 147.645 657.022 156.293 651.212L161.821 647.622C164.913 645.808 167.629 645.209 169.969 645.824C172.534 646.487 179.597 652.283 191.158 663.211C200.175 671.717 206.791 677.124 211.007 679.432L187.46 694.723C178.588 700.485 170.676 699.51 163.727 691.796C162.704 690.52 161.793 689.267 160.996 688.039L145.025 698.411C151.366 707.877 158.631 713.833 166.818 716.28C164.788 723.614 165.989 730.693 170.422 737.518L186.597 727.014C184.566 723.288 185.621 719.982 189.764 717.098L245.866 680.664C254.603 674.991 260.075 666.682 262.283 655.739C264.212 645.559 262.118 635.76 256.001 626.342L240.235 636.58C244.402 642.996 244.911 649.458 241.762 655.966C240.096 659.377 237.625 662.146 234.349 664.273L230.458 666.8C227.046 669.016 217.813 663.465 202.76 650.146C189.179 638.2 181.134 631.489 178.624 630.014C170.008 625.712 161.263 626.442 152.391 632.204L142.563 638.586ZM201.029 602.656L205.136 621.53C212.78 616.566 220.142 616.249 227.223 620.578C229.822 622.189 231.964 624.291 233.648 626.885L249.619 616.513C243.502 607.095 234.86 601.257 223.691 599.001C215.135 597.182 207.581 598.401 201.029 602.656Z" fill="black"/>
<path d="M193.806 773.975L338.362 680.099L350.196 698.322L205.64 792.198L193.806 773.975Z" fill="black"/>
<path d="M-64.1702 615.251L-19.665 586.349C-13.1004 582.257 -5.18305 581.299 4.08695 583.477C13.1588 585.612 20.152 590.464 25.0665 598.032L34.3105 612.266L19.7157 621.744L10.5887 607.69C7.39039 602.765 2.55486 600.184 -3.91787 599.947C-6.81804 599.952 -9.16904 600.539 -10.9709 601.709L-54.2148 629.792C-58.0587 632.289 -59.9579 636.596 -59.9125 642.715C-59.956 646.329 -59.1197 649.458 -57.4035 652.101L-48.3935 665.975L-62.9884 675.453L-71.8813 661.759C-78.824 651.068 -79.5819 639.776 -74.1549 627.884C-71.4625 622.036 -68.1342 617.826 -64.1702 615.251ZM-57.3718 684.101L70.1347 601.554L80.1978 617.05L-47.1917 699.777L-57.3718 684.101Z" fill="black"/>
<path d="M85.783 661.942C89.5068 659.523 93.2806 659.549 97.1045 662.018C98.365 662.907 99.3854 663.953 100.165 665.154C102.506 668.758 102.54 672.492 100.269 676.358C99.3797 677.619 98.3345 678.639 97.1332 679.419C93.5296 681.76 89.7948 681.794 85.9288 679.523C84.6683 678.633 83.6479 677.588 82.8679 676.387C80.4496 672.663 80.3761 668.868 82.6474 665.002C83.5366 663.742 84.5818 662.722 85.783 661.942ZM-24.2105 735.165L70.746 673.5L80.575 688.635L-14.3815 750.301L-24.2105 735.165Z" fill="black"/>
<path d="M-26.7233 804.273L-10.2118 798.93L11.7865 832.804C16.3952 839.375 22.2362 842.584 29.3096 842.431C31.6154 842.3 33.4289 841.805 34.7503 840.947L47.7234 832.522C41.0416 829.859 35.9813 826.143 32.5428 821.374L46.4169 812.364C49.8492 817.65 54.8018 820.411 61.2745 820.648C64.2527 820.763 66.7628 820.158 68.8049 818.831L112.95 790.163C117.514 787.199 119.48 782.336 118.846 775.575C118.487 772.393 117.528 769.6 115.968 767.198L130.202 757.954C133.712 763.359 135.112 769.196 134.401 775.464C134.437 775.783 134.434 776.041 134.392 776.239L139.797 772.729L149.275 787.323L44.2283 855.542C39.063 858.896 32.1964 860.025 23.6285 858.929C12.9591 857.489 4.75608 852.484 -0.980637 843.913L-26.7233 804.273ZM34.8081 766.876L79.8539 737.623C85.5777 734.076 92.7415 733.01 101.345 734.425C111.414 736.255 119.317 741.455 125.053 750.026L110.819 759.27C106.997 753.384 101.588 750.577 94.5924 750.851C92.0885 750.94 90.1158 751.452 88.6744 752.388L44.3493 781.173C40.7456 783.513 38.7715 787.443 38.427 792.961C38.2992 796.971 39.3664 800.719 41.6287 804.202L27.3942 813.446C20.3376 802.317 19.5618 790.866 25.0668 779.094C27.7171 773.445 30.9642 769.372 34.8081 766.876Z" fill="black"/>
<path d="M183.816 812.899C187.54 810.481 191.314 810.506 195.137 812.976C196.398 813.865 197.418 814.91 198.198 816.111C200.539 819.715 200.573 823.45 198.302 827.316C197.413 828.576 196.367 829.597 195.166 830.377C191.562 832.717 187.828 832.751 183.962 830.48C182.701 829.591 181.681 828.546 180.901 827.345C178.483 823.621 178.409 819.826 180.68 815.96C181.57 814.699 182.615 813.679 183.816 812.899ZM73.8224 886.123L168.779 824.457L178.608 839.593L83.6514 901.258L73.8224 886.123Z" fill="black"/>
<path d="M185.51 879.018L200.105 869.54L207.828 881.432L239 861.189L248.946 876.505L217.774 896.748L225.263 908.279L210.488 917.874L202.999 906.343L151.287 939.925C142.758 945.464 140.275 952.029 143.839 959.62C144.457 961.097 145.195 962.496 146.053 963.818L147.691 966.34L134.599 979.71L130.386 973.223C120.911 958.37 120.547 945.713 129.294 935.251C132.598 931.397 137.253 927.52 143.259 923.62L193.233 890.91L185.51 879.018Z" fill="black"/>
<path d="M173.73 990.264C167.123 994.555 163.644 1001.43 163.292 1010.88C163.036 1018.9 165.327 1026.63 170.163 1034.08L184.218 1024.95C177.671 1014.35 178.203 1006.49 185.813 1001.37L190.678 998.215C193.398 996.619 195.788 996.092 197.848 996.633C200.105 997.216 206.32 1002.32 216.494 1011.93C224.429 1019.42 230.251 1024.18 233.961 1026.21L213.24 1039.66C205.432 1044.73 198.47 1043.88 192.355 1037.09C191.454 1035.97 190.653 1034.86 189.951 1033.78L175.897 1042.91C181.478 1051.24 187.87 1056.48 195.075 1058.63C193.289 1065.09 194.346 1071.32 198.246 1077.32L212.481 1068.08C210.693 1064.8 211.622 1061.89 215.267 1059.35L264.638 1027.29C272.325 1022.3 277.141 1014.99 279.085 1005.36C280.782 996.4 278.939 987.777 273.556 979.489L259.682 988.499C263.348 994.144 263.796 999.831 261.026 1005.56C259.56 1008.56 257.385 1011 254.502 1012.87L251.079 1015.09C248.076 1017.04 239.95 1012.16 226.703 1000.44C214.753 989.924 207.673 984.019 205.464 982.721C197.882 978.935 190.187 979.577 182.379 984.647L173.73 990.264ZM225.181 958.645L228.795 975.255C235.521 970.886 242 970.607 248.231 974.416C250.518 975.834 252.403 977.684 253.885 979.967L267.94 970.84C262.557 962.551 254.951 957.414 245.123 955.429C237.594 953.828 230.947 954.901 225.181 958.645Z" fill="black"/>
<path d="M218.824 1109.41L346.033 1026.8L356.447 1042.83L229.238 1125.44L218.824 1109.41Z" fill="black"/>
<path d="M607.057 782.961L620.611 774.159C622.611 772.913 625.022 772.621 627.845 773.285C630.608 773.935 632.737 775.412 634.234 777.717L637.049 782.052L632.605 784.939L629.825 780.658C628.851 779.159 627.378 778.373 625.407 778.3C624.524 778.302 623.808 778.481 623.259 778.837L610.089 787.39C608.919 788.15 608.34 789.462 608.354 791.325C608.341 792.426 608.596 793.379 609.118 794.184L611.862 798.409L607.417 801.295L604.709 797.125C602.595 793.869 602.364 790.43 604.017 786.808C604.837 785.028 605.85 783.745 607.057 782.961ZM609.128 803.929L647.959 778.79L651.024 783.509L612.228 808.703L609.128 803.929Z" fill="black"/>
<path d="M652.725 797.181C653.859 796.444 655.008 796.452 656.173 797.204C656.557 797.475 656.868 797.793 657.105 798.159C657.818 799.256 657.828 800.394 657.137 801.571C656.866 801.955 656.548 802.266 656.182 802.503C655.084 803.216 653.947 803.227 652.769 802.535C652.386 802.264 652.075 801.946 651.837 801.58C651.101 800.446 651.078 799.29 651.77 798.113C652.041 797.729 652.359 797.418 652.725 797.181ZM619.227 819.481L648.146 800.701L651.139 805.31L622.22 824.09L619.227 819.481Z" fill="black"/>
<path d="M618.462 840.527L623.49 838.9L630.19 849.216C631.593 851.217 633.372 852.194 635.526 852.148C636.229 852.108 636.781 851.957 637.183 851.696L641.134 849.13C639.099 848.319 637.558 847.187 636.511 845.735L640.736 842.991C641.782 844.601 643.29 845.442 645.261 845.514C646.168 845.549 646.932 845.365 647.554 844.961L660.999 836.23C662.389 835.327 662.987 833.846 662.794 831.787C662.685 830.818 662.393 829.968 661.918 829.236L666.253 826.421C667.322 828.067 667.748 829.844 667.531 831.753C667.542 831.85 667.541 831.929 667.529 831.989L669.175 830.92L672.061 835.365L640.07 856.141C638.497 857.162 636.405 857.506 633.796 857.172C630.547 856.734 628.049 855.209 626.302 852.599L618.462 840.527ZM637.201 829.138L650.919 820.229C652.662 819.149 654.844 818.824 657.464 819.255C660.531 819.812 662.938 821.396 664.685 824.006L660.35 826.821C659.186 825.029 657.538 824.174 655.408 824.257C654.645 824.285 654.045 824.441 653.606 824.726L640.107 833.492C639.009 834.205 638.408 835.401 638.303 837.082C638.264 838.303 638.589 839.445 639.278 840.505L634.943 843.321C632.794 839.931 632.558 836.444 634.234 832.859C635.041 831.138 636.03 829.898 637.201 829.138Z" fill="black"/>
<path d="M682.581 843.154C683.715 842.418 684.864 842.425 686.028 843.177C686.412 843.448 686.723 843.766 686.961 844.132C687.673 845.23 687.684 846.367 686.992 847.545C686.721 847.928 686.403 848.239 686.037 848.477C684.94 849.189 683.802 849.2 682.625 848.508C682.241 848.237 681.93 847.919 681.693 847.553C680.956 846.419 680.934 845.264 681.626 844.086C681.896 843.702 682.215 843.392 682.581 843.154ZM649.082 865.454L678.001 846.674L680.994 851.283L652.076 870.063L649.082 865.454Z" fill="black"/>
<path d="M683.097 863.29L687.541 860.404L689.893 864.025L699.387 857.86L702.416 862.525L692.922 868.69L695.203 872.202L690.703 875.124L688.423 871.612L672.674 881.839C670.076 883.526 669.32 885.525 670.406 887.837C670.594 888.287 670.819 888.713 671.08 889.116L671.579 889.884L667.592 893.956L666.309 891.98C663.423 887.457 663.312 883.602 665.976 880.416C666.982 879.242 668.4 878.061 670.229 876.873L685.449 866.912L683.097 863.29Z" fill="black"/>
<path d="M539.702 826.936C537.69 828.243 536.63 830.335 536.523 833.214C536.445 835.657 537.143 838.012 538.616 840.28L542.896 837.501C540.902 834.271 541.064 831.877 543.382 830.32L544.863 829.358C545.692 828.872 546.42 828.711 547.047 828.876C547.734 829.054 549.627 830.607 552.726 833.536C555.142 835.815 556.915 837.264 558.045 837.883L551.735 841.981C549.357 843.525 547.237 843.264 545.374 841.197C545.1 840.855 544.856 840.519 544.642 840.19L540.362 842.969C542.062 845.506 544.008 847.103 546.203 847.758C545.659 849.724 545.981 851.621 547.168 853.45L551.503 850.635C550.959 849.636 551.242 848.75 552.352 847.977L567.388 838.213C569.729 836.693 571.195 834.466 571.787 831.533C572.304 828.805 571.743 826.179 570.104 823.655L565.878 826.399C566.995 828.118 567.131 829.85 566.288 831.594C565.841 832.508 565.179 833.25 564.301 833.82L563.258 834.498C562.344 835.091 559.869 833.604 555.835 830.034C552.195 826.833 550.039 825.034 549.367 824.639C547.057 823.486 544.714 823.682 542.336 825.226L539.702 826.936ZM555.371 817.307L556.472 822.365C558.52 821.035 560.494 820.95 562.391 822.11C563.088 822.542 563.662 823.105 564.113 823.8L568.393 821.021C566.754 818.497 564.438 816.932 561.444 816.327C559.152 815.84 557.127 816.167 555.371 817.307Z" fill="black"/>
<path d="M553.435 863.22L592.176 838.062L595.348 842.946L556.607 868.104L553.435 863.22Z" fill="black"/>
<path d="M328.098 752.628L345.9 741.067C348.526 739.43 351.693 739.047 355.401 739.918C359.03 740.772 361.827 742.713 363.793 745.74L367.49 751.434L361.653 755.225L358.002 749.603C356.722 747.633 354.788 746.601 352.199 746.506C351.039 746.508 350.099 746.743 349.378 747.211L332.08 758.444C330.543 759.443 329.783 761.166 329.801 763.613C329.784 765.059 330.118 766.31 330.805 767.367L334.409 772.917L328.571 776.708L325.014 771.231C322.237 766.954 321.934 762.438 324.104 757.681C325.181 755.342 326.513 753.657 328.098 752.628ZM330.818 780.168L381.82 747.149L385.845 753.347L334.89 786.438L330.818 780.168Z" fill="black"/>
<path d="M388.08 771.304C389.569 770.337 391.079 770.347 392.608 771.335C393.112 771.69 393.52 772.108 393.832 772.589C394.769 774.03 394.782 775.524 393.874 777.071C393.518 777.575 393.1 777.983 392.62 778.295C391.178 779.231 389.684 779.245 388.138 778.336C387.634 777.981 387.225 777.563 386.913 777.082C385.946 775.593 385.917 774.075 386.825 772.528C387.181 772.024 387.599 771.616 388.08 771.304ZM344.082 800.593L382.065 775.927L385.996 781.981L348.014 806.648L344.082 800.593Z" fill="black"/>
<path d="M343.077 828.236L349.682 826.099L358.481 839.649C360.324 842.277 362.661 843.561 365.49 843.5C366.412 843.447 367.138 843.249 367.666 842.906L372.856 839.536C370.183 838.471 368.159 836.985 366.783 835.077L372.333 831.473C373.706 833.587 375.687 834.692 378.276 834.786C379.467 834.832 380.471 834.59 381.288 834.06L398.946 822.593C400.772 821.407 401.558 819.462 401.305 816.757C401.161 815.484 400.777 814.367 400.153 813.406L405.847 809.709C407.251 811.871 407.811 814.206 407.527 816.713C407.541 816.84 407.54 816.944 407.523 817.023L409.685 815.619L413.476 821.457L371.458 848.744C369.391 850.086 366.645 850.537 363.218 850.099C358.95 849.523 355.669 847.521 353.374 844.093L343.077 828.236ZM367.69 813.277L385.708 801.576C387.997 800.158 390.863 799.731 394.304 800.297C398.332 801.029 401.493 803.109 403.788 806.537L398.094 810.235C396.565 807.881 394.401 806.758 391.603 806.867C390.602 806.903 389.813 807.108 389.236 807.483L371.506 818.997C370.065 819.933 369.275 821.504 369.137 823.711C369.086 825.316 369.513 826.815 370.418 828.208L364.724 831.906C361.901 827.454 361.591 822.874 363.793 818.165C364.853 815.905 366.152 814.276 367.69 813.277Z" fill="black"/>
<path d="M427.293 831.687C428.782 830.72 430.292 830.73 431.821 831.718C432.325 832.073 432.734 832.491 433.046 832.972C433.982 834.413 433.996 835.907 433.087 837.454C432.731 837.958 432.313 838.366 431.833 838.678C430.391 839.614 428.897 839.628 427.351 838.719C426.847 838.364 426.439 837.946 426.127 837.465C425.159 835.976 425.13 834.458 426.038 832.911C426.394 832.407 426.812 831.999 427.293 831.687ZM383.295 860.976L421.278 836.31L425.209 842.364L387.227 867.031L383.295 860.976Z" fill="black"/>
<path d="M427.97 858.134L433.808 854.343L436.898 859.1L449.366 851.003L453.345 857.129L440.876 865.226L443.871 869.839L437.961 873.677L434.966 869.064L414.281 882.497C410.869 884.713 409.876 887.339 411.302 890.375C411.549 890.966 411.844 891.526 412.187 892.054L412.843 893.063L407.606 898.411L405.921 895.817C402.131 889.875 401.985 884.812 405.484 880.627C406.806 879.086 408.668 877.535 411.07 875.975L431.06 862.891L427.97 858.134Z" fill="black"/>
<path d="M240.27 809.971C237.627 811.688 236.235 814.436 236.095 818.216C235.992 821.425 236.909 824.519 238.843 827.498L244.465 823.847C241.846 819.605 242.059 816.461 245.103 814.416L247.049 813.152C248.137 812.513 249.093 812.303 249.917 812.519C250.82 812.752 253.306 814.793 257.375 818.639C260.549 821.633 262.878 823.537 264.362 824.349L256.074 829.732C252.951 831.76 250.166 831.416 247.72 828.701C247.36 828.252 247.039 827.811 246.758 827.379L241.137 831.03C243.369 834.362 245.926 836.458 248.808 837.319C248.093 839.901 248.516 842.393 250.076 844.796L255.77 841.098C255.055 839.786 255.427 838.623 256.885 837.607L276.633 824.783C279.708 822.786 281.634 819.861 282.412 816.009C283.09 812.426 282.353 808.977 280.2 805.661L274.651 809.265C276.117 811.524 276.296 813.798 275.188 816.089C274.602 817.29 273.732 818.264 272.579 819.013L271.209 819.903C270.008 820.683 266.758 818.729 261.459 814.041C256.679 809.835 253.847 807.473 252.963 806.954C249.931 805.44 246.853 805.697 243.729 807.725L240.27 809.971ZM260.85 797.324L262.296 803.968C264.986 802.22 267.578 802.109 270.07 803.632C270.985 804.2 271.739 804.94 272.332 805.853L277.954 802.202C275.801 798.886 272.758 796.832 268.827 796.037C265.815 795.397 263.156 795.826 260.85 797.324Z" fill="black"/>
<path d="M258.307 857.628L309.191 824.584L313.357 830.998L262.473 864.043L258.307 857.628Z" fill="black"/>
<path d="M-112.557 -150.678L-84.64 -168.808C-80.5222 -171.375 -75.5559 -171.975 -69.7411 -170.609C-64.0505 -169.27 -59.6639 -166.227 -56.5811 -161.48L-50.7826 -152.551L-59.9376 -146.606L-65.6627 -155.421C-67.6689 -158.511 -70.7021 -160.13 -74.7623 -160.278C-76.5815 -160.275 -78.0562 -159.907 -79.1864 -159.173L-106.312 -141.557C-108.723 -139.991 -109.915 -137.289 -109.886 -133.451C-109.913 -131.184 -109.389 -129.221 -108.312 -127.564L-102.661 -118.861L-111.816 -112.916L-117.394 -121.505C-121.749 -128.211 -122.224 -135.294 -118.82 -142.754C-117.131 -146.422 -115.043 -149.063 -112.557 -150.678ZM-108.292 -107.49L-28.3111 -159.27L-21.9988 -149.55L-101.907 -97.6573L-108.292 -107.49Z" fill="black"/>
<path d="M-18.4953 -121.391C-16.1595 -122.908 -13.7923 -122.892 -11.3937 -121.343C-10.603 -120.785 -9.96297 -120.129 -9.47365 -119.376C-8.00568 -117.115 -7.98405 -114.772 -9.40878 -112.347C-9.96654 -111.557 -10.6222 -110.917 -11.3757 -110.427C-13.6361 -108.959 -15.9789 -108.938 -18.4039 -110.363C-19.1946 -110.92 -19.8346 -111.576 -20.3239 -112.329C-21.8409 -114.665 -21.8869 -117.046 -20.4622 -119.471C-19.9045 -120.261 -19.2488 -120.901 -18.4953 -121.391ZM-87.4913 -75.4594L-27.9277 -114.14L-21.7622 -104.646L-81.3258 -65.9654L-87.4913 -75.4594Z" fill="black"/>
<path d="M-89.0675 -32.1102L-78.7103 -35.4618L-64.9113 -14.2132C-62.0204 -10.0915 -58.3565 -8.07874 -53.9196 -8.17481C-52.4732 -8.25707 -51.3356 -8.56733 -50.5068 -9.10559L-42.3691 -14.3903C-46.5604 -16.0606 -49.7346 -18.3914 -51.8915 -21.3829L-43.1887 -27.0346C-41.0356 -23.7192 -37.929 -21.9872 -33.8689 -21.8387C-32.0007 -21.7663 -30.4262 -22.1461 -29.1453 -22.9779L-1.4544 -40.9606C1.40887 -42.82 2.64177 -45.8703 2.24429 -50.1115C2.01914 -52.1078 1.41724 -53.8595 0.438588 -55.3665L9.36748 -61.165C11.5694 -57.7742 12.4474 -54.1129 12.0013 -50.1809C12.0238 -49.9813 12.0219 -49.8193 11.9954 -49.695L15.3862 -51.897L21.3315 -42.742L-44.5615 0.0493528C-47.8015 2.15345 -52.1088 2.86163 -57.4832 2.1739C-64.1758 1.27093 -69.3213 -1.86867 -72.9198 -7.24488L-89.0675 -32.1102ZM-50.4705 -55.5685L-22.2145 -73.9181C-18.6242 -76.1426 -14.1305 -76.8111 -8.73357 -75.9238C-2.41771 -74.7762 2.53946 -71.5142 6.13794 -66.138L-2.79095 -60.3395C-5.18864 -64.0316 -8.58148 -65.792 -12.9695 -65.6205C-14.5401 -65.5647 -15.7775 -65.2432 -16.6817 -64.656L-44.4856 -46.5999C-46.7461 -45.132 -47.9844 -42.6673 -48.2005 -39.2061C-48.2806 -36.6901 -47.6112 -34.3396 -46.1922 -32.1544L-55.121 -26.356C-59.5475 -33.337 -60.0341 -40.5198 -56.581 -47.9044C-54.9185 -51.4479 -52.8817 -54.0026 -50.4705 -55.5685Z" fill="black"/>
<path d="M42.998 -26.6993C45.3339 -28.2162 47.7011 -28.2001 50.0996 -26.6511C50.8904 -26.0933 51.5304 -25.4377 52.0197 -24.6842C53.4877 -22.4237 53.5093 -20.081 52.0846 -17.656C51.5268 -16.8653 50.8712 -16.2253 50.1177 -15.7359C47.8572 -14.268 45.5145 -14.2463 43.0895 -15.6711C42.2988 -16.2288 41.6587 -16.8845 41.1694 -17.638C39.6525 -19.9738 39.6064 -22.3542 41.0311 -24.7792C41.5889 -25.5699 42.2445 -26.2099 42.998 -26.6993ZM-25.9979 19.2321L33.5657 -19.449L39.7312 -9.95501L-19.8324 28.7261L-25.9979 19.2321Z" fill="black"/>
<path d="M44.061 14.7754L53.2159 8.83012L58.0602 16.2897L77.6134 3.59174L83.8523 13.1988L64.2991 25.8967L68.9966 33.1303L59.7287 39.149L55.0311 31.9154L22.5933 52.9808C17.2435 56.455 15.6862 60.573 17.9215 65.3347C18.3091 66.2614 18.772 67.1392 19.3102 67.968L20.3378 69.5504L12.1253 77.9367L9.48298 73.8679C3.53964 64.551 3.31131 56.6112 8.79799 50.0486C10.8705 47.6314 13.7905 45.1994 17.558 42.7528L48.9053 22.235L44.061 14.7754Z" fill="black"/>
<path d="M36.6715 84.557C32.5273 87.2483 30.3447 91.5581 30.1238 97.4864C29.9635 102.518 31.4003 107.37 34.4341 112.042L43.25 106.317C39.1435 99.6634 39.477 94.7333 44.2505 91.5262L47.3021 89.5445C49.0087 88.5433 50.5079 88.2125 51.7997 88.552C53.2157 88.918 57.1145 92.1173 63.4961 98.15C68.4734 102.845 72.1256 105.83 74.4528 107.104L61.455 115.545C56.5573 118.725 52.1903 118.187 48.3541 113.929C47.7894 113.224 47.2869 112.533 46.8465 111.855L38.0306 117.58C41.5312 122.805 45.5411 126.093 50.0603 127.444C48.94 131.492 49.6031 135.4 52.0498 139.168L60.9787 133.369C59.8571 131.312 60.4398 129.487 62.7267 127.895L93.6953 107.784C98.5176 104.652 101.538 100.066 102.757 94.0252C103.822 88.4061 102.666 82.997 99.2896 77.7979L90.5868 83.4496C92.8866 86.991 93.1676 90.5579 91.4298 94.1504C90.51 96.0332 89.1459 97.5618 87.3375 98.7362L85.19 100.131C83.3063 101.354 78.2097 98.2899 69.9002 90.9381C62.404 84.3437 57.963 80.6394 56.5773 79.8253C51.8212 77.4504 46.9944 77.8533 42.0967 81.0339L36.6715 84.557ZM68.945 64.7232L71.2119 75.1421C75.4314 72.4019 79.4955 72.2266 83.4041 74.6161C84.8387 75.5056 86.0209 76.6662 86.9506 78.0978L95.7665 72.3727C92.3901 67.1736 87.6194 63.9513 81.4542 62.7058C76.7315 61.702 72.5618 62.3744 68.945 64.7232Z" fill="black"/>
<path d="M64.9576 159.291L144.753 107.472L151.285 117.531L71.4901 169.35L64.9576 159.291Z" fill="black"/>
</svg>
