<svg width="698" height="899" viewBox="0 0 698 899" fill="none" xmlns="http://www.w3.org/2000/svg">
<path d="M36.1042 156.742C27.7699 162.154 22.2367 170.33 19.5046 181.271C16.3865 194.027 18.8612 206.617 26.9287 219.039L45.7988 206.785C40.2843 198.293 39.4977 190.197 43.439 182.495C44.8235 179.808 46.6166 177.749 48.8181 176.319L106.136 139.097C111.168 135.829 117.177 135.615 124.164 138.456C128.872 140.541 132.706 143.863 135.668 148.424L154.538 136.169C144.734 121.073 131.485 113.581 114.789 113.691C106.52 113.696 99.5548 115.536 93.8938 119.213L36.1042 156.742ZM142.325 159.191C147.329 166.896 147.498 174.387 142.834 181.664C141.033 184.399 138.847 186.713 136.276 188.606L130.615 192.283L149.639 206.085C161.118 198.631 167.411 187.837 168.517 173.705C169.103 163.934 166.741 154.961 161.431 146.784L142.325 159.191ZM33.5859 229.807C40.6792 241.074 51.2564 248.066 65.3175 250.784C76.6828 252.793 86.5326 251.091 94.8669 245.679L89.7593 222.839C89.602 222.941 89.4448 223.043 89.2875 223.145C89.1303 223.247 88.8158 223.451 88.344 223.758C87.8723 224.064 87.4792 224.319 87.1647 224.524C86.8502 224.728 86.457 224.983 85.9853 225.289C85.6708 225.494 85.3563 225.698 85.0418 225.902L84.4168 225.973C75.1002 230.905 66.5012 230.229 58.6198 223.946C56.3018 222.098 54.3258 219.915 52.6919 217.399L33.5859 229.807Z" fill="black"/>
<path d="M78.924 299.105L245.453 190.96L259.086 211.953L92.557 320.098L78.924 299.105Z" fill="black"/>
<path d="M143.177 332.98C134.528 338.597 129.974 347.591 129.512 359.963C129.178 370.465 132.176 380.59 138.508 390.34L156.906 378.392C148.336 364.507 149.032 354.218 158.994 347.525L165.363 343.389C168.924 341.3 172.053 340.609 174.749 341.318C177.704 342.081 185.841 348.758 199.159 361.348C209.546 371.147 217.168 377.375 222.025 380.034L194.899 397.65C184.678 404.288 175.564 403.164 167.558 394.278C166.38 392.808 165.331 391.365 164.412 389.95L146.014 401.898C153.319 412.803 161.688 419.665 171.119 422.483C168.781 430.932 170.165 439.088 175.271 446.95L193.905 434.849C191.565 430.556 192.781 426.748 197.553 423.425L262.183 381.454C272.247 374.918 278.551 365.347 281.096 352.74C283.317 341.013 280.905 329.725 273.859 318.874L255.696 330.669C260.496 338.06 261.082 345.504 257.455 353.001C255.536 356.931 252.689 360.121 248.915 362.572L244.433 365.482C240.502 368.035 229.866 361.64 212.524 346.297C196.88 332.535 187.612 324.804 184.72 323.105C174.794 318.149 164.721 318.99 154.499 325.628L143.177 332.98ZM210.531 291.588L215.261 313.332C224.068 307.613 232.549 307.247 240.706 312.234C243.7 314.091 246.167 316.513 248.108 319.5L266.506 307.552C259.46 296.702 249.503 289.977 236.637 287.378C226.781 285.283 218.079 286.686 210.531 291.588Z" fill="black"/>
<path d="M226.059 452.345L241.699 468.682C234.622 473.277 231.44 480.598 232.151 490.644C232.77 495.384 234.073 499.456 236.06 502.861L217.426 514.962C207.521 499.708 205.621 484.734 211.726 470.037C214.992 462.327 219.769 456.43 226.059 452.345ZM284.851 415.843C299.161 406.55 314.013 406.183 329.408 414.741C336.795 418.887 342.531 424.104 346.616 430.394L328.217 442.342C323.52 435.109 316.907 431.467 308.378 431.416C304.063 431.312 300.254 432.332 296.952 434.477C291.92 437.745 290.384 444.331 292.345 454.236C293.71 461.845 297.914 475.548 304.956 495.343C309.699 507.466 309.384 518.514 304.011 528.486C301.14 533.704 296.952 538.101 291.448 541.675C276.352 551.478 261.256 552.675 246.159 545.264C237.318 540.945 229.936 534.225 224.013 525.104L242.647 513.003C247.345 520.237 253.792 524.657 261.99 526.264C267.853 527.375 273.222 526.347 278.097 523.182C284.387 519.097 285.386 509.617 281.092 494.744C279.993 490.986 278.062 485.086 275.299 477.044C272.229 468.53 270.172 462.264 269.128 458.247C266.084 443.232 268.542 431.352 276.5 422.607C278.922 420.14 281.706 417.885 284.851 415.843ZM334.721 452.874L353.356 440.773C362.138 454.296 364.203 468.493 359.552 483.363C356.474 492.739 351.397 499.725 344.321 504.321L329.154 487.678C337.802 482.061 340.793 473.412 338.125 461.73C337.388 458.185 336.253 455.233 334.721 452.874Z" fill="black"/>
<path d="M301.798 568.972L317.437 585.309C310.361 589.904 307.178 597.225 307.889 607.27C308.508 612.011 309.811 616.083 311.799 619.487L293.164 631.588C283.259 616.335 281.359 601.36 287.465 586.664C290.73 578.954 295.508 573.057 301.798 568.972ZM360.589 532.469C374.899 523.176 389.751 522.809 405.146 531.368C412.533 535.513 418.269 540.731 422.354 547.021L403.956 558.969C399.258 551.735 392.645 548.093 384.117 548.043C379.801 547.939 375.992 548.959 372.69 551.103C367.658 554.371 366.123 560.958 368.084 570.863C369.448 578.472 373.652 592.174 380.694 611.97C385.437 624.093 385.122 635.14 379.749 645.113C376.878 650.331 372.69 654.727 367.187 658.301C352.09 668.105 336.994 669.301 321.897 661.89C313.056 657.571 305.674 650.852 299.751 641.731L318.385 629.63C323.083 636.863 329.53 641.284 337.728 642.891C343.592 644.001 348.961 642.974 353.835 639.808C360.125 635.723 361.124 626.244 356.83 611.37C355.731 607.613 353.8 601.713 351.037 593.67C347.967 585.156 345.91 578.891 344.866 574.873C341.823 559.859 344.28 547.979 352.238 539.233C354.66 536.766 357.444 534.512 360.589 532.469ZM410.46 569.501L429.094 557.399C437.876 570.923 439.941 585.12 435.29 599.99C432.212 609.366 427.136 616.352 420.059 620.947L404.892 604.304C413.541 598.688 416.531 590.039 413.863 578.357C413.126 574.811 411.991 571.859 410.46 569.501Z" fill="black"/>
<path d="M493.088 619.277C497.963 616.112 502.903 616.145 507.909 619.378C509.559 620.542 510.895 621.91 511.916 623.483C514.979 628.2 515.024 633.089 512.051 638.15C510.887 639.8 509.519 641.136 507.946 642.157C503.229 645.221 498.34 645.266 493.279 642.293C491.629 641.129 490.293 639.76 489.272 638.188C486.106 633.313 486.01 628.345 488.983 623.284C490.147 621.634 491.515 620.299 493.088 619.277ZM349.096 715.134L473.403 634.408L486.27 654.222L361.963 734.948L349.096 715.134Z" fill="black"/>
<path d="M420.224 748.234C411.889 753.646 406.356 761.823 403.624 772.763C400.506 785.519 402.981 798.109 411.048 810.532L429.918 798.277C424.404 789.786 423.617 781.689 427.559 773.988C428.943 771.3 430.736 769.241 432.938 767.812L490.256 730.589C495.288 727.321 501.297 727.107 508.284 729.948C512.991 732.033 516.826 735.356 519.787 739.916L538.657 727.661C528.854 712.565 515.604 705.073 498.909 705.184C490.64 705.188 483.674 707.029 478.013 710.705L420.224 748.234ZM526.444 750.683C531.448 758.389 531.618 765.88 526.954 773.157C525.153 775.891 522.967 778.205 520.395 780.099L514.734 783.775L533.759 797.578C545.238 790.123 551.531 779.329 552.637 765.197C553.223 755.427 550.861 746.453 545.55 738.276L526.444 750.683ZM417.706 821.299C424.799 832.566 435.376 839.559 449.437 842.276C460.802 844.285 470.652 842.584 478.987 837.171L473.879 814.331C473.722 814.433 473.564 814.535 473.407 814.637C473.25 814.739 472.935 814.944 472.464 815.25C471.992 815.556 471.599 815.812 471.284 816.016C470.97 816.22 470.577 816.475 470.105 816.782C469.79 816.986 469.476 817.19 469.161 817.394L468.536 817.465C459.22 822.397 450.621 821.722 442.739 815.438C440.421 813.59 438.445 811.408 436.811 808.892L417.706 821.299Z" fill="black"/>
<path d="M293.614 190.278C286.379 194.976 281.576 202.074 279.204 211.571C276.498 222.644 278.646 233.572 285.649 244.356L302.029 233.719C297.242 226.348 296.56 219.319 299.981 212.634C301.183 210.301 302.739 208.514 304.65 207.273L354.405 174.961C358.773 172.125 363.99 171.939 370.055 174.405C374.141 176.215 377.47 179.099 380.04 183.058L396.421 172.42C387.911 159.316 376.409 152.812 361.917 152.908C354.739 152.912 348.693 154.51 343.778 157.701L293.614 190.278ZM385.819 192.405C390.163 199.093 390.31 205.596 386.261 211.912C384.698 214.286 382.8 216.295 380.568 217.938L375.654 221.13L392.168 233.111C402.133 226.64 407.596 217.271 408.556 205.003C409.064 196.522 407.014 188.732 402.404 181.634L385.819 192.405ZM291.428 253.703C297.585 263.483 306.767 269.553 318.973 271.912C328.838 273.656 337.389 272.179 344.623 267.481L340.189 247.654C340.053 247.743 339.916 247.831 339.78 247.92C339.643 248.009 339.37 248.186 338.961 248.452C338.551 248.718 338.21 248.939 337.937 249.117C337.664 249.294 337.323 249.516 336.913 249.782C336.64 249.959 336.367 250.136 336.094 250.313L335.552 250.375C327.465 254.656 320 254.07 313.159 248.615C311.146 247.011 309.431 245.117 308.013 242.933L291.428 253.703Z" fill="black"/>
<path d="M330.784 313.858L475.34 219.982L487.174 238.205L342.618 332.081L330.784 313.858Z" fill="black"/>
<path d="M386.559 343.263C379.052 348.139 375.098 355.946 374.697 366.686C374.407 375.802 377.01 384.591 382.506 393.054L398.477 382.683C391.038 370.63 391.642 361.698 400.289 355.889L405.818 352.299C408.909 350.485 411.625 349.886 413.965 350.501C416.531 351.163 423.594 356.959 435.155 367.888C444.171 376.394 450.788 381.801 455.004 384.109L431.457 399.4C422.584 405.162 414.673 404.186 407.723 396.473C406.7 395.197 405.79 393.944 404.992 392.716L389.021 403.087C395.363 412.554 402.627 418.51 410.814 420.956C408.785 428.291 409.986 435.37 414.418 442.195L430.594 431.691C428.562 427.964 429.618 424.659 433.761 421.774L489.863 385.341C498.599 379.668 504.072 371.359 506.28 360.416C508.208 350.236 506.114 340.437 499.998 331.018L484.232 341.257C488.398 347.673 488.907 354.134 485.759 360.643C484.093 364.054 481.621 366.823 478.345 368.95L474.455 371.477C471.043 373.693 461.81 368.142 446.756 354.823C433.176 342.877 425.131 336.166 422.62 334.691C414.004 330.389 405.26 331.119 396.387 336.881L386.559 343.263ZM445.026 307.332L449.132 326.207C456.776 321.243 464.139 320.926 471.22 325.254C473.819 326.866 475.96 328.968 477.645 331.562L493.615 321.19C487.499 311.772 478.856 305.934 467.687 303.678C459.132 301.859 451.578 303.077 445.026 307.332Z" fill="black"/>
<path d="M458.506 446.879L472.081 461.06C465.939 465.049 463.176 471.404 463.793 480.124C464.331 484.239 465.462 487.774 467.187 490.729L451.011 501.233C442.413 487.992 440.764 474.993 446.064 462.236C448.898 455.544 453.045 450.425 458.506 446.879ZM509.54 415.192C521.961 407.125 534.854 406.807 548.218 414.236C554.63 417.835 559.609 422.364 563.155 427.824L547.184 438.196C543.107 431.916 537.366 428.755 529.963 428.711C526.217 428.621 522.911 429.506 520.044 431.368C515.676 434.204 514.343 439.922 516.046 448.52C517.23 455.125 520.879 467.02 526.992 484.203C531.109 494.726 530.836 504.316 526.172 512.973C523.679 517.503 520.044 521.319 515.267 524.422C502.163 532.932 489.058 533.97 475.953 527.537C468.279 523.788 461.871 517.955 456.729 510.038L472.905 499.533C476.982 505.812 482.579 509.649 489.695 511.044C494.785 512.008 499.446 511.116 503.677 508.368C509.137 504.823 510.004 496.594 506.277 483.683C505.323 480.421 503.647 475.299 501.248 468.318C498.583 460.927 496.798 455.489 495.892 452.002C493.25 438.968 495.383 428.655 502.291 421.064C504.393 418.922 506.81 416.965 509.54 415.192ZM552.83 447.338L569.006 436.833C576.629 448.572 578.422 460.896 574.384 473.804C571.713 481.943 567.306 488.007 561.163 491.996L547.997 477.549C555.505 472.674 558.101 465.166 555.785 455.025C555.145 451.948 554.16 449.385 552.83 447.338Z" fill="black"/>
<path d="M524.251 548.117L537.826 562.298C531.684 566.287 528.921 572.642 529.538 581.362C530.076 585.477 531.207 589.012 532.932 591.967L516.756 602.472C508.158 589.231 506.509 576.232 511.809 563.475C514.643 556.782 518.79 551.663 524.251 548.117ZM575.285 516.431C587.706 508.364 600.599 508.045 613.963 515.474C620.375 519.073 625.354 523.602 628.9 529.062L612.929 539.434C608.852 533.155 603.111 529.993 595.708 529.949C591.962 529.859 588.656 530.745 585.789 532.606C581.421 535.443 580.088 541.16 581.79 549.758C582.975 556.364 586.624 568.258 592.737 585.442C596.854 595.965 596.581 605.555 591.917 614.212C589.424 618.741 585.789 622.557 581.012 625.66C567.907 634.17 554.803 635.208 541.698 628.775C534.024 625.026 527.615 619.193 522.474 611.276L538.65 600.771C542.727 607.051 548.324 610.888 555.44 612.282C560.53 613.247 565.191 612.355 569.422 609.607C574.882 606.061 575.749 597.832 572.022 584.921C571.068 581.659 569.392 576.538 566.993 569.557C564.328 562.166 562.543 556.727 561.636 553.24C558.994 540.206 561.128 529.894 568.036 522.302C570.138 520.161 572.555 518.204 575.285 516.431ZM618.575 548.576L634.751 538.071C642.374 549.811 644.167 562.134 640.129 575.042C637.458 583.181 633.051 589.245 626.908 593.234L613.742 578.787C621.25 573.912 623.846 566.404 621.53 556.264C620.89 553.186 619.905 550.624 618.575 548.576Z" fill="black"/>
<path d="M690.301 591.785C694.533 589.037 698.821 589.066 703.166 591.872C704.599 592.883 705.758 594.07 706.645 595.435C709.304 599.53 709.343 603.775 706.762 608.168C705.752 609.6 704.564 610.76 703.199 611.646C699.104 614.305 694.86 614.345 690.467 611.764C689.034 610.753 687.875 609.565 686.988 608.2C684.24 603.969 684.157 599.656 686.738 595.263C687.748 593.831 688.936 592.671 690.301 591.785ZM565.308 674.994L673.214 604.919L684.383 622.119L576.478 692.193L565.308 674.994Z" fill="black"/>
<path d="M627.051 703.726C619.816 708.425 615.013 715.522 612.642 725.019C609.935 736.092 612.083 747.021 619.086 757.804L635.466 747.167C630.68 739.796 629.997 732.767 633.418 726.082C634.62 723.749 636.176 721.962 638.087 720.721L687.843 688.41C692.211 685.573 697.427 685.387 703.492 687.853C707.578 689.663 710.907 692.547 713.478 696.506L729.858 685.868C721.348 672.764 709.847 666.26 695.354 666.357C688.176 666.36 682.13 667.958 677.216 671.149L627.051 703.726ZM719.256 705.853C723.6 712.541 723.747 719.044 719.699 725.361C718.135 727.735 716.237 729.743 714.006 731.387L709.091 734.578L725.606 746.56C735.57 740.088 741.033 730.719 741.993 718.451C742.502 709.97 740.451 702.18 735.841 695.082L719.256 705.853ZM624.865 767.151C631.022 776.932 640.204 783.001 652.41 785.36C662.276 787.104 670.826 785.627 678.06 780.929L673.627 761.102C673.49 761.191 673.354 761.28 673.217 761.368C673.081 761.457 672.808 761.634 672.398 761.9C671.989 762.166 671.647 762.388 671.374 762.565C671.101 762.742 670.76 762.964 670.351 763.23C670.078 763.407 669.805 763.584 669.532 763.762L668.989 763.823C660.902 768.104 653.437 767.518 646.596 762.063C644.584 760.459 642.868 758.565 641.45 756.381L624.865 767.151Z" fill="black"/>
<path d="M364.614 -16.2023C358.247 -12.0678 354.02 -5.82192 351.933 2.53544C349.552 12.2797 351.442 21.8967 357.605 31.3863L372.019 22.0253C367.807 15.5388 367.206 9.35389 370.217 3.47075C371.274 1.41766 372.644 -0.154942 374.326 -1.24706L418.11 -29.681C421.954 -32.1773 426.545 -32.3405 431.882 -30.1707C435.478 -28.578 438.407 -26.0399 440.669 -22.5563L455.084 -31.9173C447.595 -43.449 437.474 -49.1725 424.72 -49.0878C418.404 -49.0844 413.083 -47.6786 408.759 -44.8703L364.614 -16.2023ZM445.754 -14.3311C449.577 -8.4451 449.707 -2.72278 446.144 2.83588C444.768 4.92487 443.098 6.69249 441.134 8.13875L436.809 10.947L451.342 21.491C460.111 15.7964 464.918 7.55121 465.763 -3.24449C466.21 -10.7079 464.406 -17.5627 460.349 -23.8091L445.754 -14.3311ZM362.69 39.6116C368.108 48.2183 376.188 53.5596 386.929 55.6356C395.611 57.1704 403.135 55.8705 409.502 51.7361L405.6 34.2885C405.48 34.3665 405.36 34.4445 405.24 34.5225C405.12 34.6005 404.88 34.7565 404.519 34.9905C404.159 35.2246 403.858 35.4196 403.618 35.5756C403.378 35.7316 403.078 35.9266 402.717 36.1607C402.477 36.3167 402.237 36.4727 401.997 36.6287L401.519 36.6826C394.402 40.4504 387.834 39.9343 381.813 35.1342C380.042 33.7224 378.533 32.0555 377.285 30.1336L362.69 39.6116Z" fill="black"/>
<path d="M397.323 92.5477L524.533 9.93701L534.947 25.9733L407.737 108.584L397.323 92.5477Z" fill="black"/>
<path d="M446.406 118.425C439.799 122.715 436.319 129.586 435.967 139.037C435.712 147.059 438.002 154.793 442.839 162.241L456.893 153.114C450.347 142.507 450.878 134.648 458.488 129.535L463.353 126.376C466.074 124.78 468.464 124.252 470.523 124.793C472.78 125.377 478.996 130.477 489.17 140.095C497.104 147.579 502.927 152.337 506.637 154.369L485.916 167.825C478.108 172.895 471.146 172.037 465.03 165.249C464.13 164.126 463.329 163.024 462.627 161.943L448.572 171.07C454.153 179.4 460.546 184.642 467.75 186.795C465.964 193.249 467.021 199.479 470.922 205.485L485.156 196.241C483.368 192.962 484.297 190.053 487.943 187.514L537.313 155.453C545.001 150.461 549.816 143.149 551.76 133.519C553.457 124.561 551.614 115.938 546.232 107.649L532.357 116.659C536.024 122.305 536.472 127.991 533.701 133.718C532.235 136.72 530.06 139.157 527.177 141.029L523.754 143.252C520.751 145.203 512.626 140.318 499.379 128.597C487.428 118.084 480.349 112.179 478.139 110.881C470.557 107.095 462.862 107.737 455.054 112.808L446.406 118.425ZM497.856 86.8054L501.47 103.415C508.197 99.0469 514.676 98.7674 520.907 102.577C523.194 103.995 525.079 105.845 526.561 108.127L540.615 99.0003C535.232 90.7119 527.627 85.5749 517.798 83.5893C510.269 81.989 503.622 83.0611 497.856 86.8054Z" fill="black"/>
<path d="M509.718 209.606L521.665 222.085C516.26 225.596 513.828 231.188 514.372 238.862C514.845 242.483 515.84 245.594 517.358 248.194L503.124 257.438C495.557 245.786 494.105 234.347 498.77 223.121C501.264 217.231 504.914 212.727 509.718 209.606ZM554.629 181.722C565.56 174.623 576.905 174.343 588.665 180.881C594.308 184.047 598.69 188.033 601.81 192.838L587.756 201.965C584.167 196.439 579.116 193.657 572.601 193.618C569.305 193.539 566.395 194.318 563.872 195.957C560.029 198.453 558.856 203.484 560.354 211.05C561.396 216.863 564.607 227.33 569.987 242.452C573.61 251.712 573.369 260.151 569.265 267.769C567.071 271.755 563.873 275.114 559.668 277.844C548.137 285.333 536.605 286.247 525.072 280.586C518.319 277.286 512.68 272.153 508.155 265.186L522.39 255.942C525.978 261.468 530.903 264.844 537.165 266.072C541.644 266.92 545.746 266.135 549.47 263.717C554.274 260.597 555.037 253.356 551.757 241.994C550.918 239.123 549.443 234.616 547.332 228.473C544.987 221.969 543.415 217.183 542.618 214.114C540.293 202.645 542.17 193.57 548.25 186.889C550.1 185.005 552.226 183.282 554.629 181.722ZM592.724 210.01L606.959 200.766C613.667 211.097 615.245 221.941 611.692 233.3C609.341 240.463 605.463 245.799 600.057 249.309L588.471 236.596C595.078 232.306 597.362 225.699 595.324 216.775C594.761 214.067 593.894 211.812 592.724 210.01Z" fill="black"/>
<path d="M567.574 298.696L579.521 311.175C574.115 314.686 571.684 320.278 572.227 327.952C572.7 331.573 573.696 334.683 575.214 337.284L560.979 346.528C553.412 334.876 551.961 323.437 556.625 312.21C559.119 306.321 562.769 301.816 567.574 298.696ZM612.484 270.812C623.415 263.713 634.761 263.433 646.521 269.97C652.164 273.137 656.545 277.123 659.666 281.928L645.611 291.055C642.023 285.529 636.971 282.747 630.457 282.708C627.16 282.629 624.251 283.408 621.728 285.046C617.884 287.543 616.711 292.574 618.209 300.14C619.251 305.953 622.463 316.42 627.842 331.542C631.465 340.802 631.224 349.241 627.12 356.859C624.927 360.845 621.728 364.203 617.524 366.934C605.992 374.422 594.46 375.336 582.928 369.675C576.174 366.376 570.535 361.243 566.011 354.276L580.245 345.032C583.833 350.557 588.759 353.934 595.021 355.161C599.5 356.01 603.601 355.225 607.325 352.807C612.13 349.687 612.893 342.445 609.613 331.084C608.773 328.213 607.298 323.706 605.187 317.563C602.842 311.059 601.271 306.273 600.474 303.204C598.149 291.734 600.026 282.659 606.105 275.979C607.955 274.094 610.082 272.372 612.484 270.812ZM650.58 299.1L664.814 289.856C671.523 300.186 673.101 311.031 669.547 322.39C667.196 329.552 663.318 334.889 657.913 338.399L646.326 325.686C652.933 321.395 655.218 314.788 653.18 305.865C652.617 303.157 651.75 300.902 650.58 299.1Z" fill="black"/>
<path d="M713.698 337.124C717.422 334.705 721.196 334.731 725.02 337.2C726.28 338.09 727.301 339.135 728.081 340.336C730.421 343.94 730.456 347.674 728.184 351.54C727.295 352.801 726.25 353.821 725.049 354.601C721.445 356.942 717.71 356.976 713.844 354.705C712.584 353.816 711.563 352.77 710.783 351.569C708.365 347.845 708.292 344.051 710.563 340.185C711.452 338.924 712.497 337.904 713.698 337.124ZM603.705 410.347L698.661 348.682L708.49 363.817L613.534 425.483L603.705 410.347Z" fill="black"/>
<path d="M658.038 435.632C651.672 439.767 647.445 446.013 645.358 454.37C642.976 464.114 644.867 473.731 651.029 483.221L665.444 473.86C661.232 467.373 660.631 461.188 663.641 455.305C664.699 453.252 666.069 451.679 667.75 450.587L711.535 422.153C715.379 419.657 719.969 419.494 725.306 421.664C728.902 423.256 731.832 425.795 734.094 429.278L748.508 419.917C741.02 408.385 730.898 402.662 718.145 402.747C711.828 402.75 706.508 404.156 702.183 406.964L658.038 435.632ZM739.179 437.503C743.002 443.389 743.131 449.112 739.568 454.67C738.192 456.759 736.522 458.527 734.558 459.973L730.234 462.781L744.766 473.325C753.535 467.631 758.342 459.386 759.187 448.59C759.635 441.127 757.83 434.272 753.774 428.025L739.179 437.503ZM656.115 491.446C661.533 500.053 669.613 505.394 680.354 507.47C689.036 509.005 696.56 507.705 702.927 503.571L699.025 486.123C698.905 486.201 698.785 486.279 698.665 486.357C698.544 486.435 698.304 486.591 697.944 486.825C697.584 487.059 697.283 487.254 697.043 487.41C696.803 487.566 696.502 487.761 696.142 487.995C695.902 488.151 695.662 488.307 695.421 488.463L694.944 488.517C687.827 492.285 681.258 491.769 675.238 486.969C673.467 485.557 671.958 483.89 670.71 481.968L656.115 491.446Z" fill="black"/>
<path d="M400.001 -198.661C394.792 -195.279 391.333 -190.168 389.626 -183.33C387.677 -175.358 389.224 -167.489 394.266 -159.725L406.06 -167.384C402.613 -172.691 402.122 -177.752 404.585 -182.565C405.45 -184.245 406.571 -185.532 407.947 -186.425L443.771 -209.689C446.916 -211.732 450.671 -211.865 455.038 -210.09C457.98 -208.787 460.377 -206.71 462.228 -203.86L474.022 -211.519C467.894 -220.954 459.613 -225.637 449.179 -225.568C444.011 -225.565 439.657 -224.415 436.119 -222.117L400.001 -198.661ZM466.389 -197.13C469.516 -192.315 469.622 -187.633 466.707 -183.085C465.581 -181.376 464.215 -179.929 462.608 -178.746L459.07 -176.448L470.96 -167.821C478.135 -172.481 482.068 -179.227 482.759 -188.06C483.125 -194.166 481.649 -199.774 478.33 -204.885L466.389 -197.13ZM398.427 -152.995C402.86 -145.954 409.471 -141.583 418.259 -139.885C425.362 -138.629 431.518 -139.693 436.727 -143.075L433.535 -157.351C433.437 -157.287 433.339 -157.223 433.24 -157.159C433.142 -157.095 432.945 -156.968 432.651 -156.776C432.356 -156.585 432.11 -156.425 431.913 -156.298C431.717 -156.17 431.471 -156.01 431.176 -155.819C430.98 -155.691 430.783 -155.564 430.587 -155.436L430.196 -155.392C424.373 -152.309 418.999 -152.731 414.073 -156.659C412.624 -157.814 411.389 -159.178 410.368 -160.75L398.427 -152.995Z" fill="black"/>
<path d="M426.763 -109.684L530.843 -177.275L539.364 -164.154L435.284 -96.5635L426.763 -109.684Z" fill="black"/>
<path d="M466.921 -88.5121C461.516 -85.0017 458.669 -79.3802 458.381 -71.6477C458.172 -65.0843 460.046 -58.7559 464.003 -52.6624L475.502 -60.13C470.146 -68.8081 470.581 -75.2387 476.807 -79.4218L480.787 -82.0067C483.013 -83.3126 484.969 -83.7441 486.654 -83.3012C488.501 -82.8239 493.586 -78.6509 501.91 -70.7821C508.402 -64.6581 513.166 -60.7652 516.201 -59.1034L499.248 -48.0936C492.859 -43.945 487.163 -44.6475 482.159 -50.201C481.423 -51.1199 480.767 -52.0217 480.193 -52.9062L468.694 -45.4387C473.26 -38.6228 478.49 -34.3343 484.385 -32.5731C482.924 -27.2925 483.789 -22.1951 486.98 -17.281L498.626 -24.8443C497.163 -27.5272 497.923 -29.9072 500.906 -31.984L541.3 -58.216C547.59 -62.3008 551.53 -68.2829 553.12 -76.1623C554.509 -83.4916 553.001 -90.5469 548.597 -97.3284L537.246 -89.9566C540.245 -85.3374 540.612 -80.6848 538.345 -75.999C537.145 -73.5431 535.366 -71.5493 533.007 -70.0175L530.206 -68.1985C527.749 -66.6029 521.102 -70.5997 510.263 -80.189C500.485 -88.7904 494.693 -93.622 492.885 -94.6839C486.682 -97.7816 480.386 -97.2561 473.998 -93.1075L466.921 -88.5121ZM509.017 -114.382L511.974 -100.792C517.478 -104.367 522.779 -104.595 527.877 -101.478C529.748 -100.318 531.29 -98.8045 532.503 -96.9371L544.002 -104.405C539.598 -111.186 533.375 -115.389 525.334 -117.014C519.174 -118.323 513.735 -117.446 509.017 -114.382Z" fill="black"/>
<path d="M518.723 -13.909L528.497 -3.69864C524.075 -0.826521 522.085 3.74888 522.53 10.0276C522.917 12.9901 523.731 15.5353 524.973 17.663L513.327 25.2263C507.136 15.6929 505.948 6.33364 509.765 -2.85162C511.805 -7.67019 514.791 -11.356 518.723 -13.909ZM555.467 -36.7232C564.411 -42.5313 573.694 -42.7608 583.316 -37.4117C587.932 -34.8208 591.517 -31.5596 594.07 -27.6284L582.571 -20.1609C579.636 -24.6818 575.502 -26.9582 570.172 -26.9899C567.475 -27.0548 565.094 -26.4172 563.031 -25.0769C559.886 -23.0345 558.926 -18.918 560.151 -12.7274C561.004 -7.97148 563.632 0.592548 568.033 12.9647C570.997 20.5414 570.8 27.4462 567.442 33.6791C565.648 36.9404 563.031 39.688 559.591 41.9219C550.156 48.0491 540.72 48.7968 531.285 44.165C525.759 41.4656 521.145 37.2658 517.444 31.5654L529.09 24.0022C532.026 28.5231 536.056 31.2858 541.179 32.2901C544.844 32.9843 548.2 32.3422 551.246 30.3636C555.178 27.8106 555.802 21.8861 553.118 12.59C552.431 10.2414 551.224 6.55392 549.497 1.52745C547.578 -3.79386 546.293 -7.70986 545.641 -10.2206C543.738 -19.6047 545.274 -27.0297 550.248 -32.4955C551.762 -34.0375 553.502 -35.4467 555.467 -36.7232ZM586.636 -13.5785L598.283 -21.1418C603.772 -12.6896 605.063 -3.81659 602.155 5.47714C600.232 11.3373 597.059 15.7034 592.636 18.5755L583.157 8.17369C588.562 4.66333 590.431 -0.742384 588.764 -8.04343C588.303 -10.2593 587.594 -12.1043 586.636 -13.5785Z" fill="black"/>
<path d="M566.059 58.9827L575.834 69.193C571.411 72.0651 569.422 76.6405 569.866 82.9192C570.253 85.8817 571.068 88.4269 572.31 90.5546L560.663 98.1179C554.472 88.5846 553.285 79.2253 557.101 70.04C559.142 65.2214 562.128 61.5357 566.059 58.9827ZM602.804 36.1684C611.747 30.3603 621.03 30.1308 630.652 35.4799C635.269 38.0709 638.854 41.332 641.407 45.2632L629.908 52.7308C626.972 48.2098 622.839 45.9335 617.508 45.9018C614.811 45.8368 612.431 46.4745 610.367 47.8148C607.222 49.8572 606.262 53.9737 607.488 60.1642C608.341 64.9201 610.968 73.4842 615.369 85.8563C618.334 93.433 618.137 100.338 614.779 106.571C612.984 109.832 610.367 112.58 606.927 114.814C597.492 120.941 588.057 121.688 578.621 117.057C573.096 114.357 568.482 110.157 564.78 104.457L576.426 96.8938C579.362 101.415 583.392 104.177 588.516 105.182C592.18 105.876 595.536 105.234 598.583 103.255C602.514 100.702 603.138 94.7777 600.455 85.4817C599.768 83.1331 598.561 79.4455 596.834 74.4191C594.915 69.0978 593.629 65.1818 592.977 62.6711C591.075 53.2869 592.611 45.8619 597.585 40.3961C599.098 38.8541 600.838 37.4449 602.804 36.1684ZM633.973 59.3131L645.619 51.7498C651.108 60.2021 652.399 69.075 649.492 78.3688C647.568 84.2289 644.395 88.595 639.973 91.4671L630.493 81.0653C635.898 77.555 637.768 72.1492 636.1 64.8482C635.639 62.6323 634.93 60.7873 633.973 59.3131Z" fill="black"/>
<path d="M685.615 90.4235C688.662 88.4449 691.75 88.4659 694.878 90.4863C695.91 91.2138 696.745 92.069 697.383 93.0518C699.298 96.0003 699.326 99.056 697.467 102.219C696.74 103.25 695.885 104.085 694.902 104.723C691.954 106.638 688.898 106.666 685.735 104.808C684.703 104.081 683.869 103.225 683.23 102.243C681.252 99.1959 681.192 96.091 683.05 92.9279C683.777 91.8966 684.633 91.0617 685.615 90.4235ZM595.621 150.334L673.312 99.8803L681.354 112.264L603.663 162.717L595.621 150.334Z" fill="black"/>
<path d="M640.075 171.021C634.866 174.404 631.408 179.514 629.701 186.352C627.752 194.325 629.299 202.193 634.341 209.957L646.135 202.298C642.688 196.991 642.196 191.931 644.66 187.117C645.525 185.438 646.646 184.151 648.022 183.257L683.845 159.993C686.99 157.951 690.746 157.817 695.113 159.593C698.055 160.896 700.452 162.972 702.303 165.823L714.096 158.164C707.969 148.729 699.688 144.046 689.253 144.115C684.085 144.118 679.732 145.268 676.194 147.566L640.075 171.021ZM706.463 172.552C709.591 177.368 709.697 182.05 706.782 186.598C705.656 188.307 704.29 189.753 702.683 190.937L699.145 193.234L711.035 201.861C718.209 197.202 722.142 190.456 722.834 181.623C723.2 175.517 721.723 169.908 718.405 164.798L706.463 172.552ZM638.502 216.687C642.935 223.729 649.546 228.099 658.334 229.798C665.437 231.054 671.593 229.99 676.802 226.607L673.61 212.332C673.512 212.396 673.413 212.46 673.315 212.523C673.217 212.587 673.02 212.715 672.725 212.906C672.431 213.098 672.185 213.257 671.988 213.385C671.792 213.513 671.546 213.672 671.251 213.864C671.055 213.991 670.858 214.119 670.661 214.247L670.271 214.291C664.448 217.374 659.074 216.951 654.148 213.024C652.699 211.869 651.464 210.505 650.443 208.933L638.502 216.687Z" fill="black"/>
<path d="M126.368 -35.5713C123.59 -33.7672 121.746 -31.0417 120.835 -27.3949C119.795 -23.1428 120.62 -18.9463 123.31 -14.8054L129.6 -18.8902C127.761 -21.7207 127.499 -24.4195 128.813 -26.9867C129.274 -27.8826 129.872 -28.5688 130.606 -29.0454L149.712 -41.453C151.389 -42.5422 153.392 -42.6135 155.721 -41.6666C157.29 -40.9716 158.569 -39.8641 159.556 -38.344L165.846 -42.4288C162.578 -47.4608 158.162 -49.9583 152.596 -49.9214C149.84 -49.9199 147.518 -49.3064 145.631 -48.081L126.368 -35.5713ZM161.775 -34.7548C163.443 -32.1864 163.499 -29.6894 161.945 -27.2638C161.344 -26.3522 160.616 -25.5809 159.759 -24.9498L157.872 -23.7243L164.213 -19.1234C168.039 -21.6083 170.137 -25.2062 170.506 -29.917C170.701 -33.1738 169.914 -36.165 168.144 -38.8907L161.775 -34.7548ZM125.529 -11.2162C127.893 -7.46054 131.419 -5.12977 136.106 -4.22387C139.894 -3.55416 143.177 -4.12136 145.956 -5.92548L144.253 -13.539C144.201 -13.505 144.148 -13.4709 144.096 -13.4369C144.043 -13.4028 143.939 -13.3348 143.781 -13.2326C143.624 -13.1305 143.493 -13.0454 143.388 -12.9773C143.283 -12.9093 143.152 -12.8242 142.995 -12.722C142.89 -12.654 142.785 -12.5859 142.681 -12.5178L142.472 -12.4943C139.367 -10.8502 136.5 -11.0754 133.873 -13.17C133.101 -13.786 132.442 -14.5134 131.897 -15.352L125.529 -11.2162Z" fill="black"/>
<path d="M140.641 11.8832L196.151 -24.1651L200.695 -17.1674L145.186 18.8809L140.641 11.8832Z" fill="black"/>
<path d="M162.059 23.175C159.176 25.0472 157.658 28.0453 157.504 32.1693C157.393 35.6698 158.392 39.0449 160.503 42.2948L166.635 38.3121C163.779 33.6837 164.011 30.2541 167.331 28.0231L169.454 26.6445C170.641 25.948 171.684 25.7179 172.583 25.9541C173.568 26.2086 176.28 28.4343 180.72 32.631C184.182 35.8971 186.723 37.9733 188.342 38.8596L179.3 44.7315C175.893 46.9441 172.855 46.5694 170.186 43.6076C169.793 43.1174 169.444 42.6365 169.137 42.1647L163.005 46.1474C165.44 49.7825 168.229 52.0698 171.373 53.0091C170.594 55.8254 171.055 58.544 172.757 61.1649L178.968 57.1311C178.188 55.7002 178.593 54.4309 180.184 53.3233L201.728 39.3328C205.082 37.1543 207.184 33.9638 208.032 29.7615C208.772 25.8526 207.968 22.0897 205.619 18.4729L199.565 22.4045C201.165 24.8681 201.361 27.3495 200.152 29.8486C199.512 31.1584 198.563 32.2218 197.305 33.0387L195.811 34.0089C194.501 34.8599 190.955 32.7282 185.175 27.6139C179.96 23.0265 176.871 20.4496 175.907 19.8833C172.598 18.2312 169.24 18.5115 165.833 20.7241L162.059 23.175ZM184.51 9.37751L186.087 16.6255C189.022 14.7192 191.85 14.5973 194.569 16.2596C195.567 16.8783 196.389 17.6857 197.036 18.6816L203.169 14.6989C200.82 11.0821 197.501 8.84055 193.212 7.97412C189.927 7.27579 187.026 7.74359 184.51 9.37751Z" fill="black"/>
<path d="M189.686 62.9633L194.9 68.4088C192.541 69.9406 191.48 72.3808 191.717 75.7294C191.923 77.3095 192.358 78.6669 193.02 79.8017L186.809 83.8354C183.507 78.751 182.874 73.7593 184.909 68.8605C185.997 66.2906 187.59 64.3249 189.686 62.9633ZM209.284 50.7957C214.054 47.698 219.004 47.5756 224.136 50.4285C226.598 51.8103 228.51 53.5496 229.872 55.6463L223.739 59.6289C222.173 57.2178 219.969 56.0037 217.126 55.9868C215.688 55.9521 214.418 56.2922 213.317 57.0071C211.64 58.0964 211.128 60.2918 211.782 63.5935C212.237 66.1299 213.638 70.6974 215.985 77.2959C217.566 81.3368 217.461 85.0194 215.67 88.3436C214.713 90.083 213.317 91.5483 211.483 92.7397C206.451 96.0076 201.419 96.4064 196.386 93.9361C193.439 92.4964 190.979 90.2565 189.004 87.2163L195.216 83.1826C196.782 85.5937 198.931 87.0672 201.663 87.6028C203.618 87.9731 205.407 87.6306 207.032 86.5753C209.129 85.2137 209.462 82.054 208.031 77.0961C207.664 75.8435 207.021 73.8768 206.099 71.196C205.076 68.358 204.391 66.2695 204.043 64.9304C203.028 59.9256 203.847 55.9656 206.5 53.0505C207.307 52.2281 208.235 51.4765 209.284 50.7957ZM225.907 63.1395L232.119 59.1058C235.046 63.6136 235.734 68.3459 234.184 73.3025C233.158 76.4279 231.466 78.7565 229.107 80.2883L224.051 74.7407C226.934 72.8685 227.931 69.9855 227.042 66.0916C226.796 64.9098 226.418 63.9258 225.907 63.1395Z" fill="black"/>
<path d="M214.932 101.839L220.146 107.284C217.787 108.816 216.726 111.256 216.963 114.605C217.169 116.185 217.604 117.542 218.266 118.677L212.055 122.711C208.753 117.626 208.12 112.635 210.155 107.736C211.243 105.166 212.836 103.2 214.932 101.839ZM234.53 89.6712C239.3 86.5736 244.25 86.4512 249.382 89.304C251.844 90.6859 253.756 92.4251 255.118 94.5218L248.985 98.5045C247.419 96.0933 245.215 94.8792 242.372 94.8623C240.934 94.8277 239.664 95.1678 238.563 95.8826C236.886 96.9719 236.374 99.1673 237.028 102.469C237.483 105.005 238.884 109.573 241.231 116.171C242.812 120.212 242.707 123.895 240.916 127.219C239.959 128.958 238.563 130.424 236.729 131.615C231.697 134.883 226.665 135.282 221.632 132.812C218.685 131.372 216.225 129.132 214.25 126.092L220.462 122.058C222.028 124.469 224.177 125.943 226.909 126.478C228.864 126.849 230.654 126.506 232.278 125.451C234.375 124.089 234.708 120.93 233.277 115.972C232.91 114.719 232.267 112.752 231.346 110.072C230.322 107.234 229.637 105.145 229.289 103.806C228.274 98.8011 229.093 94.8411 231.746 91.926C232.553 91.1036 233.481 90.352 234.53 89.6712ZM251.153 102.015L257.365 97.9813C260.292 102.489 260.98 107.221 259.43 112.178C258.404 115.303 256.712 117.632 254.353 119.164L249.297 113.616C252.18 111.744 253.177 108.861 252.288 104.967C252.042 103.785 251.664 102.801 251.153 102.015Z" fill="black"/>
<path d="M278.696 118.607C280.321 117.552 281.968 117.563 283.636 118.641C284.186 119.029 284.631 119.485 284.972 120.009C285.993 121.582 286.008 123.211 285.017 124.898C284.629 125.448 284.173 125.894 283.649 126.234C282.076 127.255 280.446 127.27 278.76 126.279C278.209 125.891 277.764 125.435 277.424 124.911C276.369 123.286 276.337 121.63 277.328 119.943C277.716 119.393 278.172 118.948 278.696 118.607ZM230.699 150.559L272.134 123.651L276.423 130.255L234.988 157.164L230.699 150.559Z" fill="black"/>
<path d="M254.408 161.593C251.63 163.397 249.785 166.122 248.875 169.769C247.835 174.021 248.66 178.218 251.349 182.359L257.639 178.274C255.801 175.443 255.539 172.745 256.853 170.177C257.314 169.281 257.912 168.595 258.646 168.119L277.752 155.711C279.429 154.622 281.432 154.551 283.761 155.497C285.33 156.192 286.609 157.3 287.596 158.82L293.886 154.735C290.618 149.703 286.201 147.206 280.636 147.243C277.88 147.244 275.558 147.858 273.671 149.083L254.408 161.593ZM289.815 162.409C291.483 164.978 291.539 167.475 289.985 169.9C289.384 170.812 288.655 171.583 287.798 172.214L285.911 173.44L292.253 178.041C296.079 175.556 298.177 171.958 298.546 167.247C298.741 163.99 297.953 160.999 296.183 158.273L289.815 162.409ZM253.568 185.948C255.933 189.704 259.459 192.034 264.146 192.94C267.934 193.61 271.217 193.043 273.995 191.239L272.293 183.625C272.241 183.659 272.188 183.693 272.136 183.727C272.083 183.761 271.978 183.829 271.821 183.931C271.664 184.034 271.533 184.119 271.428 184.187C271.323 184.255 271.192 184.34 271.035 184.442C270.93 184.51 270.825 184.578 270.72 184.646L270.512 184.67C267.407 186.314 264.54 186.089 261.913 183.994C261.14 183.378 260.482 182.651 259.937 181.812L253.568 185.948Z" fill="black"/>
<path d="M186.368 -96.5713C183.59 -94.7672 181.746 -92.0417 180.835 -88.3949C179.795 -84.1428 180.62 -79.9463 183.31 -75.8054L189.6 -79.8902C187.761 -82.7207 187.499 -85.4195 188.813 -87.9867C189.274 -88.8826 189.872 -89.5688 190.606 -90.0454L209.712 -102.453C211.389 -103.542 213.392 -103.613 215.721 -102.667C217.29 -101.972 218.569 -100.864 219.556 -99.344L225.846 -103.429C222.578 -108.461 218.162 -110.958 212.596 -110.921C209.84 -110.92 207.518 -110.306 205.631 -109.081L186.368 -96.5713ZM221.775 -95.7548C223.443 -93.1864 223.499 -90.6894 221.945 -88.2638C221.344 -87.3522 220.616 -86.5809 219.759 -85.9498L217.872 -84.7243L224.213 -80.1234C228.039 -82.6083 230.137 -86.2062 230.506 -90.917C230.701 -94.1738 229.914 -97.165 228.144 -99.8907L221.775 -95.7548ZM185.529 -72.2162C187.893 -68.4605 191.419 -66.1298 196.106 -65.2239C199.894 -64.5542 203.177 -65.1214 205.956 -66.9255L204.253 -74.539C204.201 -74.505 204.148 -74.4709 204.096 -74.4369C204.043 -74.4028 203.939 -74.3348 203.781 -74.2326C203.624 -74.1305 203.493 -74.0454 203.388 -73.9773C203.283 -73.9093 203.152 -73.8242 202.995 -73.722C202.89 -73.654 202.785 -73.5859 202.681 -73.5178L202.472 -73.4943C199.367 -71.8502 196.5 -72.0754 193.873 -74.17C193.101 -74.786 192.442 -75.5134 191.897 -76.352L185.529 -72.2162Z" fill="black"/>
<path d="M200.641 -49.1168L256.151 -85.1651L260.695 -78.1674L205.186 -42.1191L200.641 -49.1168Z" fill="black"/>
<path d="M222.059 -37.825C219.176 -35.9528 217.658 -32.9547 217.504 -28.8307C217.393 -25.3302 218.392 -21.9551 220.503 -18.7052L226.635 -22.6879C223.779 -27.3163 224.011 -30.7459 227.331 -32.9769L229.454 -34.3555C230.641 -35.052 231.684 -35.2821 232.583 -35.0459C233.568 -34.7914 236.28 -32.5657 240.72 -28.369C244.182 -25.1029 246.723 -23.0267 248.342 -22.1404L239.3 -16.2685C235.893 -14.0559 232.855 -14.4306 230.186 -17.3924C229.793 -17.8826 229.444 -18.3635 229.137 -18.8353L223.005 -14.8526C225.44 -11.2175 228.229 -8.93022 231.373 -7.9909C230.594 -5.17458 231.055 -2.456 232.757 0.16485L238.968 -3.86888C238.188 -5.2998 238.593 -6.56909 240.184 -7.67674L261.728 -21.6672C265.082 -23.8457 267.184 -27.0362 268.032 -31.2385C268.772 -35.1474 267.968 -38.9103 265.619 -42.5271L259.565 -38.5955C261.165 -36.1319 261.361 -33.6505 260.152 -31.1514C259.512 -29.8416 258.563 -28.7782 257.305 -27.9613L255.811 -26.9911C254.501 -26.1401 250.955 -28.2718 245.175 -33.3861C239.96 -37.9735 236.871 -40.5504 235.907 -41.1167C232.598 -42.7688 229.24 -42.4885 225.833 -40.2759L222.059 -37.825ZM244.51 -51.6225L246.087 -44.3745C249.022 -46.2808 251.85 -46.4027 254.569 -44.7404C255.567 -44.1217 256.389 -43.3143 257.036 -42.3184L263.169 -46.3011C260.82 -49.9179 257.501 -52.1594 253.212 -53.0259C249.927 -53.7242 247.026 -53.2564 244.51 -51.6225Z" fill="black"/>
<path d="M249.686 1.96328L254.9 7.40879C252.541 8.94059 251.48 11.3808 251.717 14.7294C251.923 16.3095 252.358 17.6669 253.02 18.8017L246.809 22.8354C243.507 17.751 242.874 12.7593 244.909 7.86053C245.997 5.29063 247.59 3.32488 249.686 1.96328ZM269.284 -10.2043C274.054 -13.302 279.004 -13.4244 284.136 -10.5715C286.598 -9.18967 288.51 -7.45041 289.872 -5.35374L283.739 -1.37107C282.173 -3.78224 279.969 -4.99628 277.126 -5.01319C275.688 -5.04785 274.418 -4.70776 273.317 -3.99292C271.64 -2.90364 271.128 -0.708184 271.782 2.59346C272.237 5.12994 273.638 9.69742 275.985 16.2959C277.566 20.3368 277.461 24.0194 275.67 27.3436C274.713 29.083 273.317 30.5483 271.483 31.7397C266.451 35.0076 261.419 35.4064 256.386 32.9361C253.439 31.4964 250.979 29.2565 249.004 26.2163L255.216 22.1826C256.782 24.5937 258.931 26.0672 261.663 26.6028C263.618 26.9731 265.407 26.6306 267.032 25.5753C269.129 24.2137 269.462 21.054 268.031 16.0961C267.664 14.8435 267.021 12.8768 266.099 10.196C265.076 7.35801 264.391 5.26947 264.043 3.93044C263.028 -1.07445 263.847 -5.03444 266.5 -7.94955C267.307 -8.77194 268.235 -9.52353 269.284 -10.2043ZM285.907 2.13951L292.119 -1.89422C295.046 2.61363 295.734 7.34589 294.184 12.3025C293.158 15.4279 291.466 17.7565 289.107 19.2883L284.051 13.7407C286.934 11.8685 287.931 8.98546 287.042 5.09157C286.796 3.90978 286.418 2.92576 285.907 2.13951Z" fill="black"/>
<path d="M274.932 40.8388L280.146 46.2843C277.787 47.8161 276.726 50.2563 276.963 53.605C277.169 55.185 277.604 56.5424 278.266 57.6772L272.055 61.7109C268.753 56.6265 268.12 51.6349 270.155 46.7361C271.243 44.1662 272.836 42.2004 274.932 40.8388ZM294.53 28.6712C299.3 25.5736 304.25 25.4512 309.382 28.304C311.844 29.6859 313.756 31.4251 315.118 33.5218L308.985 37.5045C307.419 35.0933 305.215 33.8792 302.372 33.8623C300.934 33.8277 299.664 34.1678 298.563 34.8826C296.886 35.9719 296.374 38.1673 297.028 41.469C297.483 44.0055 298.884 48.573 301.231 55.1714C302.812 59.2123 302.707 62.8949 300.916 66.2191C299.959 67.9585 298.563 69.4239 296.729 70.6153C291.697 73.8831 286.665 74.2819 281.632 71.8116C278.685 70.3719 276.225 68.132 274.25 65.0918L280.462 61.0581C282.028 63.4693 284.177 64.9427 286.909 65.4783C288.864 65.8486 290.654 65.5061 292.278 64.4509C294.375 63.0893 294.708 59.9295 293.277 54.9716C292.91 53.719 292.267 51.7524 291.346 49.0716C290.322 46.2335 289.637 44.145 289.289 42.806C288.274 37.8011 289.093 33.8411 291.746 30.926C292.553 30.1036 293.481 29.352 294.53 28.6712ZM311.153 41.015L317.365 36.9813C320.292 41.4892 320.98 46.2214 319.43 51.1781C318.404 54.3035 316.712 56.6321 314.353 58.1639L309.297 52.6162C312.18 50.744 313.177 47.861 312.288 43.9671C312.042 42.7853 311.664 41.8013 311.153 41.015Z" fill="black"/>
<path d="M338.696 57.6073C340.321 56.552 341.968 56.5632 343.636 57.6408C344.186 58.0288 344.631 58.4849 344.972 59.009C345.993 60.5815 346.008 62.2113 345.017 63.8982C344.629 64.4483 344.173 64.8935 343.649 65.2339C342.076 66.2551 340.446 66.2702 338.76 65.279C338.209 64.891 337.764 64.4349 337.424 63.9108C336.369 62.2859 336.337 60.6299 337.328 58.943C337.716 58.3929 338.172 57.9477 338.696 57.6073ZM290.699 89.5595L332.134 62.6509L336.423 69.2554L294.988 96.164L290.699 89.5595Z" fill="black"/>
<path d="M314.408 100.593C311.63 102.397 309.785 105.122 308.875 108.769C307.835 113.021 308.66 117.218 311.349 121.359L317.639 117.274C315.801 114.443 315.539 111.745 316.853 109.177C317.314 108.281 317.912 107.595 318.646 107.119L337.752 94.7111C339.429 93.6219 341.432 93.5506 343.761 94.4975C345.33 95.1925 346.609 96.3 347.596 97.8201L353.886 93.7353C350.618 88.7033 346.201 86.2058 340.636 86.2427C337.88 86.2442 335.558 86.8577 333.671 88.0831L314.408 100.593ZM349.815 101.409C351.483 103.978 351.539 106.475 349.985 108.9C349.384 109.812 348.655 110.583 347.798 111.214L345.911 112.44L352.253 117.041C356.079 114.556 358.177 110.958 358.546 106.247C358.741 102.99 357.953 99.9991 356.183 97.2735L349.815 101.409ZM313.568 124.948C315.933 128.704 319.459 131.034 324.146 131.94C327.934 132.61 331.217 132.043 333.995 130.239L332.293 122.625C332.241 122.659 332.188 122.693 332.136 122.727C332.083 122.761 331.978 122.829 331.821 122.931C331.664 123.034 331.533 123.119 331.428 123.187C331.323 123.255 331.192 123.34 331.035 123.442C330.93 123.51 330.825 123.578 330.72 123.646L330.512 123.67C327.407 125.314 324.54 125.089 321.913 122.994C321.14 122.378 320.482 121.651 319.937 120.812L313.568 124.948Z" fill="black"/>
<path d="M581.696 783.953C579.844 785.155 578.614 786.972 578.007 789.404C577.314 792.238 577.864 795.036 579.657 797.797L583.85 795.073C582.625 793.186 582.45 791.387 583.326 789.676C583.634 789.078 584.032 788.621 584.521 788.303L597.259 780.032C598.377 779.305 599.712 779.258 601.265 779.889C602.311 780.352 603.163 781.091 603.821 782.104L608.015 779.381C605.836 776.026 602.892 774.361 599.182 774.386C597.344 774.387 595.796 774.796 594.538 775.613L581.696 783.953ZM605.301 784.497C606.413 786.209 606.45 787.874 605.414 789.491C605.014 790.099 604.528 790.613 603.956 791.034L602.698 791.851L606.926 794.918C609.477 793.261 610.875 790.863 611.121 787.722C611.251 785.551 610.727 783.557 609.546 781.74L605.301 784.497ZM581.136 800.189C582.713 802.693 585.063 804.247 588.188 804.851C590.714 805.297 592.902 804.919 594.754 803.716L593.619 798.641C593.585 798.664 593.55 798.686 593.515 798.709C593.48 798.732 593.41 798.777 593.305 798.845C593.2 798.913 593.113 798.97 593.043 799.015C592.973 799.061 592.886 799.117 592.781 799.185C592.711 799.231 592.641 799.276 592.571 799.322L592.432 799.337C590.362 800.433 588.451 800.283 586.7 798.887C586.184 798.476 585.745 797.991 585.382 797.432L581.136 800.189Z" fill="black"/>
<path d="M591.212 815.589L628.218 791.557L631.248 796.222L594.241 820.254L591.212 815.589Z" fill="black"/>
<path d="M605.49 823.117C603.568 824.365 602.556 826.364 602.454 829.113C602.379 831.447 603.045 833.697 604.452 835.863L608.541 833.208C606.637 830.123 606.791 827.836 609.005 826.349L610.42 825.43C611.212 824.966 611.907 824.812 612.506 824.97C613.163 825.139 614.971 826.623 617.931 829.421C620.239 831.598 621.933 832.982 623.012 833.573L616.984 837.488C614.713 838.963 612.687 838.713 610.908 836.739C610.646 836.412 610.413 836.091 610.209 835.777L606.12 838.432C607.744 840.855 609.604 842.38 611.699 843.006C611.18 844.884 611.487 846.696 612.622 848.443L616.763 845.754C616.243 844.8 616.513 843.954 617.574 843.216L631.936 833.889C634.172 832.436 635.573 830.309 636.139 827.508C636.632 824.902 636.096 822.393 634.53 819.982L630.494 822.603C631.561 824.246 631.691 825.9 630.885 827.566C630.459 828.439 629.826 829.148 628.987 829.693L627.991 830.339C627.118 830.907 624.754 829.486 620.901 826.076C617.424 823.018 615.364 821.3 614.722 820.922C612.516 819.821 610.278 820.008 608.006 821.483L605.49 823.117ZM620.458 813.918L621.509 818.75C623.466 817.48 625.351 817.398 627.163 818.507C627.829 818.919 628.377 819.457 628.808 820.121L632.896 817.466C631.331 815.055 629.118 813.561 626.259 812.983C624.069 812.517 622.135 812.829 620.458 813.918Z" fill="black"/>
<path d="M542.995 807.67L546.47 811.3C544.898 812.321 544.19 813.948 544.348 816.18C544.486 817.234 544.775 818.139 545.217 818.895L541.076 821.584C538.875 818.195 538.453 814.867 539.81 811.601C540.535 809.888 541.597 808.577 542.995 807.67ZM556.059 799.558C559.239 797.493 562.54 797.411 565.961 799.313C567.603 800.234 568.877 801.394 569.785 802.792L565.696 805.447C564.653 803.839 563.183 803.03 561.288 803.019C560.329 802.996 559.482 803.222 558.749 803.699C557.63 804.425 557.289 805.889 557.725 808.09C558.028 809.781 558.962 812.826 560.527 817.225C561.581 819.919 561.511 822.374 560.317 824.59C559.679 825.749 558.749 826.726 557.526 827.521C554.171 829.699 550.816 829.965 547.461 828.318C545.497 827.358 543.856 825.865 542.54 823.838L546.681 821.149C547.725 822.757 549.158 823.739 550.979 824.096C552.282 824.343 553.475 824.115 554.559 823.411C555.956 822.503 556.178 820.397 555.224 817.092C554.98 816.256 554.551 814.945 553.937 813.158C553.254 811.266 552.797 809.874 552.565 808.981C551.889 805.645 552.435 803.005 554.204 801.061C554.742 800.513 555.361 800.012 556.059 799.558ZM567.142 807.787L571.283 805.098C573.234 808.103 573.693 811.258 572.66 814.563C571.976 816.646 570.848 818.199 569.275 819.22L565.904 815.521C567.826 814.273 568.491 812.351 567.898 809.755C567.734 808.967 567.482 808.311 567.142 807.787Z" fill="black"/>
<path d="M559.825 833.587L563.301 837.217C561.728 838.238 561.021 839.865 561.179 842.097C561.317 843.151 561.606 844.056 562.048 844.812L557.907 847.501C555.706 844.112 555.283 840.784 556.64 837.518C557.366 835.805 558.428 834.494 559.825 833.587ZM572.89 825.475C576.07 823.41 579.371 823.328 582.792 825.23C584.433 826.151 585.708 827.311 586.616 828.709L582.527 831.364C581.483 829.756 580.014 828.947 578.118 828.936C577.16 828.913 576.313 829.139 575.579 829.616C574.461 830.342 574.12 831.806 574.556 834.007C574.859 835.698 575.793 838.743 577.358 843.142C578.412 845.836 578.342 848.291 577.148 850.507C576.51 851.666 575.579 852.643 574.356 853.438C571.002 855.616 567.647 855.882 564.292 854.235C562.327 853.275 560.687 851.782 559.371 849.755L563.512 847.066C564.555 848.674 565.988 849.656 567.81 850.013C569.113 850.26 570.306 850.032 571.389 849.328C572.787 848.42 573.009 846.314 572.055 843.009C571.811 842.174 571.382 840.862 570.767 839.075C570.085 837.183 569.628 835.791 569.396 834.898C568.72 831.562 569.266 828.922 571.034 826.978C571.573 826.43 572.191 825.929 572.89 825.475ZM583.972 833.704L588.113 831.015C590.065 834.02 590.524 837.175 589.49 840.48C588.806 842.563 587.678 844.116 586.106 845.137L582.735 841.438C584.657 840.19 585.322 838.268 584.729 835.672C584.565 834.884 584.313 834.228 583.972 833.704Z" fill="black"/>
<path d="M602.334 844.766C603.418 844.062 604.515 844.07 605.628 844.788C605.995 845.047 606.291 845.351 606.518 845.7C607.199 846.749 607.209 847.835 606.548 848.96C606.29 849.326 605.986 849.623 605.636 849.85C604.588 850.531 603.501 850.541 602.377 849.88C602.01 849.622 601.713 849.317 601.486 848.968C600.783 847.885 600.761 846.781 601.422 845.656C601.681 845.289 601.985 844.993 602.334 844.766ZM570.336 866.067L597.96 848.128L600.819 852.531L573.196 870.47L570.336 866.067Z" fill="black"/>
<path d="M586.142 873.423C584.29 874.625 583.061 876.442 582.453 878.874C581.761 881.708 582.311 884.506 584.103 887.267L588.297 884.543C587.071 882.656 586.896 880.857 587.772 879.146C588.08 878.548 588.478 878.091 588.968 877.773L601.705 869.502C602.823 868.775 604.159 868.728 605.711 869.359C606.757 869.822 607.609 870.561 608.268 871.574L612.461 868.851C610.282 865.496 607.338 863.831 603.628 863.856C601.79 863.857 600.242 864.266 598.984 865.083L586.142 873.423ZM609.747 873.967C610.859 875.679 610.897 877.344 609.86 878.961C609.46 879.569 608.974 880.083 608.403 880.504L607.145 881.321L611.372 884.388C613.923 882.731 615.322 880.333 615.567 877.192C615.698 875.021 615.173 873.027 613.993 871.21L609.747 873.967ZM585.583 889.659C587.159 892.163 589.509 893.717 592.634 894.321C595.16 894.767 597.349 894.389 599.201 893.187L598.066 888.111C598.031 888.134 597.996 888.156 597.961 888.179C597.926 888.202 597.856 888.247 597.751 888.315C597.646 888.383 597.559 888.44 597.489 888.485C597.419 888.531 597.332 888.587 597.227 888.656C597.157 888.701 597.087 888.746 597.017 888.792L596.878 888.807C594.808 889.903 592.897 889.753 591.146 888.357C590.631 887.946 590.192 887.461 589.828 886.902L585.583 889.659Z" fill="black"/>
</svg>
