<svg width="718" height="900" viewBox="0 0 718 900" fill="none" xmlns="http://www.w3.org/2000/svg">
<path d="M62.3221 147.77C53.8065 152.818 47.995 160.689 44.8877 171.385C41.3322 183.859 43.3718 196.363 51.0064 208.898L70.2871 197.469C65.0685 188.901 64.5613 180.887 68.7654 173.428C70.2417 170.826 72.1046 168.858 74.354 167.524L132.919 132.81C138.061 129.762 144.074 129.761 150.958 132.807C155.591 135.027 159.309 138.439 162.111 143.04L181.392 131.611C172.115 116.379 159.131 108.526 142.442 108.053C134.178 107.769 127.153 109.341 121.369 112.769L62.3221 147.77ZM168.394 153.893C173.129 161.668 173.041 169.063 168.129 176.077C166.234 178.712 163.97 180.918 161.335 182.696L155.551 186.124L174.088 200.403C185.817 193.451 192.478 183.024 194.071 169.123C194.992 159.506 192.941 150.572 187.915 142.322L168.394 153.893ZM57.2887 219.751C63.9896 231.112 74.3195 238.378 88.2784 241.549C99.5676 243.928 109.47 242.593 117.986 237.545L113.668 214.838C113.507 214.933 113.347 215.028 113.186 215.124C113.025 215.219 112.704 215.409 112.222 215.695C111.74 215.981 111.338 216.219 111.017 216.409C110.695 216.6 110.294 216.838 109.812 217.124C109.49 217.314 109.169 217.505 108.848 217.695L108.221 217.743C98.7399 222.283 90.1694 221.316 82.5093 214.843C80.2563 212.939 78.3567 210.718 76.8104 208.179L57.2887 219.751Z" fill="#A84B47"/>
<path d="M100.212 289.686L270.364 188.828L283.266 210.011L113.114 310.869L100.212 289.686Z" fill="#A84B47"/>
<path d="M163.26 325.342C154.423 330.58 149.561 339.293 148.674 351.48C147.978 361.827 150.626 371.919 156.617 381.756L175.416 370.613C167.329 356.618 168.379 346.494 178.566 340.24L185.073 336.383C188.705 334.446 191.855 333.875 194.525 334.668C197.452 335.524 205.354 342.394 218.23 355.277C228.274 365.304 235.676 371.714 240.439 374.506L212.723 390.935C202.279 397.125 193.209 395.699 185.514 386.655C184.387 385.163 183.389 383.704 182.519 382.276L163.72 393.419C170.646 404.43 178.773 411.49 188.101 414.599C185.474 422.851 186.576 430.944 191.408 438.878L210.448 427.592C208.256 423.276 209.603 419.562 214.487 416.451L280.523 377.308C290.806 371.213 297.436 361.992 300.413 349.645C303.037 338.156 301.015 326.937 294.347 315.989L275.789 326.989C280.332 334.447 280.661 341.81 276.778 349.078C274.725 352.887 271.77 355.934 267.914 358.22L263.334 360.934C259.318 363.315 248.908 356.636 232.105 340.898C216.945 326.777 207.948 318.828 205.117 317.052C195.368 311.817 185.272 312.294 174.828 318.485L163.26 325.342ZM231.998 286.865L235.977 308.477C244.974 303.144 253.463 303.079 261.444 308.282C264.372 310.218 266.754 312.693 268.59 315.708L287.389 304.565C280.721 293.617 271.002 286.636 258.233 283.623C248.455 281.213 239.71 282.293 231.998 286.865Z" fill="#A84B47"/>
<path d="M241.98 445.972L257.047 462.631C249.817 466.917 246.384 474.027 246.748 483.961C247.204 488.658 248.366 492.72 250.235 496.147L231.195 507.433C221.821 492.042 220.438 477.205 227.046 462.922C230.575 455.431 235.553 449.781 241.98 445.972ZM301.993 412.019C316.614 403.352 331.47 403.508 346.561 412.487C353.8 416.834 359.353 422.181 363.219 428.527L344.42 439.67C339.975 432.372 333.491 428.548 324.969 428.201C320.66 427.947 316.819 428.821 313.445 430.821C308.303 433.869 306.542 440.312 308.16 450.15C309.262 457.703 312.991 471.365 319.347 491.137C323.669 503.26 322.974 514.146 317.261 523.795C314.212 528.841 309.875 533.032 304.252 536.365C288.827 545.508 273.699 546.161 258.867 538.324C250.18 533.756 243.033 526.87 237.428 517.667L256.468 506.381C260.913 513.68 267.205 518.265 275.342 520.136C281.164 521.436 286.565 520.61 291.546 517.658C297.973 513.848 299.297 504.533 295.519 489.713C294.55 485.968 292.823 480.081 290.338 472.052C287.563 463.546 285.724 457.295 284.819 453.296C282.294 438.38 285.159 426.747 293.414 418.399C295.92 416.05 298.779 413.923 301.993 412.019ZM350.557 450.285L369.597 439C377.908 452.645 379.483 466.721 374.322 481.225C370.924 490.366 365.609 497.08 358.379 501.365L343.794 484.42C352.631 479.182 355.918 470.755 353.654 459.14C353.039 455.617 352.007 452.666 350.557 450.285Z" fill="#A84B47"/>
<path d="M313.655 563.651L328.722 580.311C321.491 584.596 318.059 591.706 318.423 601.64C318.879 606.337 320.041 610.399 321.91 613.826L302.87 625.112C293.496 609.721 292.113 594.884 298.721 580.601C302.25 573.111 307.228 567.461 313.655 563.651ZM373.668 529.698C388.289 521.031 403.145 521.187 418.236 530.166C425.475 534.513 431.028 539.86 434.894 546.207L416.095 557.35C411.649 550.051 405.166 546.228 396.644 545.88C392.335 545.627 388.494 546.5 385.119 548.5C379.978 551.548 378.217 557.991 379.835 567.829C380.937 575.382 384.666 589.045 391.022 608.816C395.344 620.939 394.649 631.825 388.936 641.474C385.887 646.521 381.55 650.711 375.927 654.044C360.502 663.187 345.374 663.84 330.541 656.004C321.854 651.435 314.708 644.549 309.103 635.346L328.143 624.061C332.588 631.359 338.88 635.944 347.017 637.816C352.839 639.116 358.24 638.29 363.221 635.337C369.648 631.528 370.972 622.213 367.193 607.392C366.225 603.647 364.498 597.76 362.013 589.731C359.238 581.226 357.398 574.974 356.494 570.975C353.969 556.059 356.834 544.427 365.089 536.078C367.595 533.73 370.454 531.603 373.668 529.698ZM422.232 567.965L441.272 556.679C449.583 570.325 451.158 584.4 445.997 598.905C442.599 608.046 437.284 614.759 430.054 619.045L415.469 602.099C424.306 596.861 427.593 588.434 425.329 576.819C424.714 573.296 423.682 570.345 422.232 567.965Z" fill="#A84B47"/>
<path d="M503.096 619.946C508.076 616.994 513.013 617.199 517.904 620.563C519.513 621.768 520.801 623.165 521.767 624.751C524.666 629.511 524.543 634.336 521.397 639.224C520.177 640.811 518.764 642.08 517.157 643.033C512.337 645.89 507.449 645.764 502.494 642.655C500.884 641.449 499.597 640.053 498.63 638.466C495.634 633.547 495.709 628.644 498.855 623.756C500.075 622.168 501.489 620.899 503.096 619.946ZM355.89 709.471L482.902 634.184L495.078 654.176L368.067 729.463L355.89 709.471Z" fill="#A84B47"/>
<path d="M425.834 744.601C417.318 749.649 411.507 757.521 408.4 768.217C404.844 780.69 406.884 793.194 414.518 805.729L433.799 794.301C428.58 785.732 428.073 777.719 432.277 770.26C433.754 767.657 435.616 765.689 437.866 764.356L496.431 729.641C501.572 726.593 507.586 726.592 514.47 729.638C519.103 731.859 522.821 735.27 525.623 739.871L544.904 728.443C535.626 713.21 522.643 705.358 505.954 704.884C497.69 704.6 490.665 706.172 484.881 709.601L425.834 744.601ZM531.906 750.725C536.641 758.499 536.553 765.894 531.641 772.909C529.746 775.544 527.482 777.75 524.847 779.527L519.063 782.956L537.6 797.235C549.329 790.282 555.99 779.855 557.582 765.954C558.504 756.338 556.453 747.404 551.427 739.153L531.906 750.725ZM420.801 816.582C427.501 827.943 437.831 835.209 451.79 838.381C463.08 840.759 472.982 839.424 481.498 834.377L477.18 811.669C477.019 811.765 476.858 811.86 476.698 811.955C476.537 812.05 476.216 812.241 475.734 812.527C475.252 812.812 474.85 813.05 474.529 813.241C474.207 813.431 473.806 813.669 473.324 813.955C473.002 814.146 472.681 814.336 472.36 814.527L471.733 814.574C462.252 819.114 453.681 818.148 446.021 811.675C443.768 809.771 441.869 807.55 440.322 805.011L420.801 816.582Z" fill="#A84B47"/>
<path d="M318.521 189.834C311.129 194.216 306.084 201.049 303.387 210.334C300.3 221.161 302.071 232.016 308.698 242.897L325.435 232.976C320.905 225.538 320.465 218.582 324.114 212.107C325.396 209.848 327.013 208.14 328.965 206.982L379.803 176.848C384.266 174.202 389.486 174.201 395.462 176.845C399.484 178.773 402.711 181.734 405.143 185.728L421.88 175.808C413.827 162.585 402.556 155.768 388.069 155.358C380.895 155.111 374.798 156.476 369.777 159.452L318.521 189.834ZM410.597 195.149C414.707 201.898 414.631 208.318 410.367 214.407C408.723 216.694 406.757 218.609 404.47 220.152L399.449 223.128L415.54 235.523C425.722 229.488 431.503 220.437 432.886 208.37C433.686 200.022 431.905 192.267 427.543 185.105L410.597 195.149ZM314.152 252.318C319.968 262.18 328.935 268.487 341.052 271.24C350.852 273.304 359.448 272.146 366.84 267.764L363.092 248.053C362.952 248.136 362.813 248.218 362.673 248.301C362.534 248.384 362.255 248.549 361.837 248.797C361.418 249.045 361.07 249.252 360.791 249.417C360.512 249.582 360.163 249.789 359.745 250.037C359.466 250.203 359.187 250.368 358.908 250.533L358.363 250.575C350.134 254.516 342.694 253.677 336.044 248.058C334.089 246.405 332.44 244.477 331.098 242.273L314.152 252.318Z" fill="black"/>
<path d="M351.412 313.026L499.113 225.475L510.312 243.863L362.611 331.413L351.412 313.026Z" fill="black"/>
<path d="M406.14 343.977C398.469 348.524 394.249 356.087 393.479 366.666C392.875 375.647 395.173 384.408 400.374 392.947L416.693 383.275C409.673 371.126 410.585 362.338 419.427 356.909L425.076 353.561C428.228 351.88 430.963 351.383 433.28 352.072C435.821 352.815 442.68 358.778 453.858 369.962C462.576 378.666 469.002 384.23 473.136 386.654L449.077 400.915C440.011 406.288 432.138 405.05 425.459 397.2C424.48 395.905 423.614 394.638 422.858 393.398L406.54 403.071C412.552 412.63 419.607 418.758 427.704 421.457C425.423 428.62 426.38 435.645 430.575 442.532L447.102 432.735C445.2 428.989 446.369 425.765 450.609 423.064L507.932 389.086C516.858 383.795 522.613 375.791 525.197 365.073C527.475 355.1 525.72 345.361 519.931 335.858L503.822 345.407C507.765 351.88 508.051 358.272 504.681 364.581C502.898 367.887 500.333 370.532 496.986 372.517L493.011 374.873C489.524 376.94 480.488 371.142 465.902 357.48C452.742 345.222 444.933 338.322 442.475 336.78C434.012 332.236 425.248 332.651 416.182 338.024L406.14 343.977ZM465.809 310.576L469.263 329.337C477.073 324.707 484.442 324.651 491.369 329.168C493.911 330.848 495.979 332.997 497.573 335.614L513.891 325.941C508.103 316.437 499.667 310.378 488.582 307.762C480.095 305.67 472.503 306.608 465.809 310.576Z" fill="black"/>
<path d="M474.474 448.69L487.553 463.151C481.276 466.872 478.297 473.043 478.613 481.666C479.008 485.744 480.017 489.27 481.639 492.245L465.112 502.042C456.975 488.681 455.774 475.802 461.51 463.404C464.574 456.901 468.895 451.997 474.474 448.69ZM526.568 419.217C539.26 411.693 552.156 411.829 565.256 419.623C571.54 423.397 576.36 428.038 579.716 433.547L563.398 443.22C559.539 436.884 553.911 433.565 546.513 433.264C542.773 433.044 539.438 433.802 536.509 435.538C532.046 438.184 530.517 443.777 531.922 452.317C532.878 458.873 536.115 470.733 541.633 487.896C545.385 498.419 544.781 507.869 539.822 516.245C537.175 520.626 533.411 524.263 528.529 527.156C515.14 535.093 502.008 535.66 489.132 528.857C481.592 524.891 475.388 518.914 470.523 510.926L487.05 501.129C490.909 507.465 496.371 511.445 503.434 513.069C508.488 514.198 513.176 513.48 517.5 510.918C523.079 507.611 524.228 499.525 520.948 486.659C520.107 483.409 518.608 478.298 516.451 471.329C514.043 463.946 512.446 458.519 511.66 455.048C509.469 442.1 511.956 432.002 519.122 424.755C521.297 422.716 523.779 420.87 526.568 419.217ZM568.725 452.435L585.253 442.638C592.467 454.483 593.834 466.701 589.354 479.292C586.404 487.227 581.791 493.054 575.515 496.775L562.854 482.065C570.525 477.518 573.378 470.203 571.413 460.12C570.879 457.063 569.983 454.501 568.725 452.435Z" fill="black"/>
<path d="M536.691 550.842L549.771 565.304C543.494 569.024 540.514 575.196 540.831 583.819C541.226 587.896 542.235 591.422 543.857 594.397L527.33 604.194C519.192 590.834 517.992 577.954 523.728 565.556C526.791 559.054 531.113 554.149 536.691 550.842ZM588.786 521.369C601.478 513.846 614.374 513.981 627.473 521.776C633.758 525.549 638.578 530.19 641.934 535.7L625.615 545.372C621.756 539.036 616.128 535.718 608.731 535.416C604.991 535.196 601.656 535.954 598.727 537.69C594.264 540.336 592.735 545.929 594.14 554.469C595.096 561.026 598.333 572.885 603.851 590.048C607.603 600.571 606.999 610.021 602.04 618.397C599.393 622.778 595.629 626.415 590.747 629.308C577.358 637.245 564.225 637.812 551.35 631.009C543.809 627.044 537.606 621.066 532.741 613.078L549.268 603.281C553.127 609.617 558.588 613.597 565.652 615.221C570.705 616.35 575.394 615.633 579.718 613.07C585.297 609.763 586.446 601.677 583.166 588.812C582.325 585.561 580.826 580.451 578.669 573.481C576.261 566.098 574.664 560.671 573.878 557.2C571.687 544.252 574.174 534.154 581.339 526.908C583.514 524.869 585.997 523.022 588.786 521.369ZM630.943 554.587L647.47 544.79C654.685 556.635 656.052 568.853 651.572 581.444C648.622 589.379 644.009 595.207 637.733 598.927L625.072 584.217C632.743 579.67 635.596 572.356 633.631 562.273C633.097 559.215 632.201 556.653 630.943 554.587Z" fill="black"/>
<path d="M701.137 599.71C705.46 597.147 709.745 597.325 713.991 600.245C715.388 601.291 716.506 602.503 717.345 603.881C719.861 608.013 719.754 612.2 717.024 616.443C715.964 617.821 714.737 618.923 713.343 619.75C709.159 622.23 704.916 622.121 700.614 619.422C699.217 618.375 698.099 617.163 697.261 615.786C694.66 611.516 694.725 607.259 697.456 603.016C698.515 601.639 699.742 600.536 701.137 599.71ZM573.354 677.422L683.607 612.069L694.177 629.423L583.924 694.776L573.354 677.422Z" fill="black"/>
<path d="M634.069 707.917C626.677 712.299 621.633 719.132 618.935 728.417C615.849 739.244 617.619 750.099 624.247 760.98L640.983 751.059C636.453 743.621 636.013 736.665 639.663 730.19C640.944 727.931 642.561 726.222 644.514 725.065L695.351 694.931C699.815 692.285 705.034 692.284 711.01 694.928C715.032 696.856 718.259 699.817 720.692 703.811L737.429 693.891C729.375 680.668 718.105 673.851 703.618 673.441C696.444 673.194 690.347 674.559 685.326 677.535L634.069 707.917ZM726.145 713.232C730.256 719.981 730.179 726.4 725.915 732.49C724.271 734.777 722.305 736.692 720.018 738.235L714.997 741.211L731.089 753.606C741.27 747.571 747.052 738.519 748.434 726.452C749.235 718.105 747.454 710.35 743.091 703.188L726.145 713.232ZM629.7 770.401C635.517 780.262 644.484 786.57 656.601 789.323C666.401 791.387 674.996 790.229 682.388 785.847L678.64 766.136C678.501 766.219 678.361 766.301 678.222 766.384C678.083 766.467 677.804 766.632 677.385 766.88C676.967 767.128 676.618 767.335 676.339 767.5C676.06 767.665 675.711 767.872 675.293 768.12C675.014 768.285 674.735 768.451 674.456 768.616L673.912 768.658C665.682 772.599 658.242 771.76 651.593 766.141C649.637 764.488 647.988 762.56 646.646 760.356L629.7 770.401Z" fill="black"/>
<path d="M396.588 -11.3525C390.083 -7.49668 385.644 -1.48347 383.27 6.68709C380.554 16.2154 382.112 25.7671 387.945 35.3424L402.673 26.6122C398.686 20.067 398.299 13.9456 401.51 8.24772C402.638 6.25954 404.061 4.75618 405.779 3.73765L450.517 -22.7805C454.444 -25.1086 459.038 -25.1094 464.297 -22.7828C467.836 -21.0864 470.675 -18.4807 472.816 -14.9657L487.545 -23.6959C480.458 -35.3317 470.54 -41.3304 457.791 -41.6919C451.478 -41.909 446.112 -40.708 441.694 -38.089L396.588 -11.3525ZM477.615 -6.67511C481.233 -0.735998 481.165 4.91281 477.413 10.2713C475.966 12.2838 474.236 13.969 472.223 15.327L467.805 17.9461L481.965 28.8534C490.925 23.5425 496.013 15.5776 497.23 4.95858C497.934 -2.38741 496.367 -9.21177 492.528 -15.5145L477.615 -6.67511ZM392.743 43.633C397.862 52.3114 405.753 57.8619 416.416 60.2845C425.04 62.1013 432.604 61.0818 439.109 57.2259L435.811 39.88C435.688 39.9528 435.565 40.0255 435.443 40.0983C435.32 40.171 435.074 40.3165 434.706 40.5348C434.338 40.7531 434.031 40.9349 433.786 41.0804C433.54 41.226 433.233 41.4078 432.865 41.6261C432.62 41.7716 432.374 41.9171 432.129 42.0626L431.65 42.099C424.408 45.5671 417.861 44.8288 412.009 39.8841C410.288 38.4297 408.837 36.7329 407.656 34.7936L392.743 43.633Z" fill="black"/>
<path d="M425.532 97.0559L555.51 20.0114L565.365 36.1924L435.388 113.237L425.532 97.0559Z" fill="black"/>
<path d="M473.693 124.293C466.943 128.294 463.229 134.95 462.551 144.26C462.02 152.163 464.042 159.872 468.619 167.387L482.98 158.875C476.802 148.185 477.604 140.451 485.386 135.673L490.357 132.727C493.131 131.248 495.537 130.811 497.577 131.416C499.813 132.071 505.849 137.318 515.685 147.16C523.357 154.819 529.012 159.716 532.65 161.849L511.478 174.398C503.5 179.127 496.572 178.037 490.694 171.129C489.833 169.99 489.07 168.875 488.406 167.784L474.045 176.296C479.336 184.707 485.544 190.101 492.67 192.475C490.663 198.779 491.505 204.961 495.196 211.021L509.74 202.4C508.066 199.103 509.095 196.267 512.826 193.89L563.27 163.989C571.125 159.333 576.19 152.289 578.464 142.858C580.468 134.081 578.923 125.511 573.83 117.148L559.654 125.551C563.123 131.248 563.375 136.872 560.409 142.425C558.84 145.334 556.583 147.662 553.637 149.408L550.139 151.481C547.071 153.3 539.119 148.198 526.284 136.176C514.703 125.389 507.831 119.317 505.668 117.96C498.221 113.961 490.508 114.326 482.53 119.055L473.693 124.293ZM526.202 94.9005L529.241 111.41C536.114 107.336 542.599 107.286 548.695 111.261C550.932 112.74 552.752 114.63 554.154 116.933L568.514 108.421C563.421 100.058 555.997 94.7257 546.243 92.4242C538.773 90.583 532.093 91.4084 526.202 94.9005Z" fill="black"/>
<path d="M533.827 216.441L545.336 229.167C539.813 232.44 537.191 237.871 537.47 245.46C537.817 249.048 538.705 252.151 540.133 254.769L525.589 263.39C518.428 251.633 517.371 240.299 522.419 229.389C525.115 223.667 528.917 219.351 533.827 216.441ZM579.67 190.504C590.839 183.884 602.187 184.003 613.715 190.862C619.245 194.182 623.487 198.267 626.44 203.115L612.08 211.627C608.684 206.052 603.731 203.131 597.222 202.865C593.93 202.672 590.996 203.339 588.418 204.867C584.491 207.195 583.145 212.117 584.381 219.632C585.223 225.402 588.072 235.839 592.927 250.942C596.229 260.202 595.698 268.518 591.333 275.889C589.004 279.744 585.692 282.945 581.396 285.491C569.613 292.475 558.057 292.974 546.727 286.988C540.091 283.498 534.632 278.238 530.35 271.208L544.894 262.587C548.29 268.162 553.096 271.665 559.312 273.094C563.759 274.087 567.885 273.456 571.69 271.201C576.599 268.291 577.611 261.175 574.725 249.854C573.985 246.993 572.665 242.496 570.767 236.363C568.648 229.866 567.242 225.09 566.551 222.035C564.623 210.641 566.811 201.755 573.117 195.378C575.031 193.584 577.215 191.959 579.67 190.504ZM616.768 219.736L631.312 211.115C637.661 221.538 638.864 232.29 634.922 243.37C632.326 250.353 628.266 255.481 622.743 258.755L611.602 245.811C618.352 241.809 620.863 235.372 619.134 226.499C618.664 223.808 617.875 221.554 616.768 219.736Z" fill="black"/>
<path d="M588.579 306.334L600.088 319.061C594.565 322.334 591.943 327.765 592.221 335.354C592.569 338.942 593.457 342.045 594.884 344.663L580.34 353.284C573.179 341.527 572.123 330.193 577.171 319.283C579.867 313.561 583.669 309.245 588.579 306.334ZM634.422 280.398C645.591 273.778 656.939 273.897 668.467 280.756C673.997 284.076 678.239 288.161 681.192 293.009L666.832 301.521C663.436 295.945 658.483 293.025 651.973 292.759C648.682 292.566 645.747 293.233 643.17 294.761C639.242 297.089 637.897 302.011 639.133 309.526C639.975 315.296 642.823 325.732 647.679 340.835C650.98 350.096 650.449 358.412 646.085 365.783C643.756 369.638 640.443 372.838 636.148 375.385C624.365 382.369 612.808 382.868 601.478 376.882C594.842 373.392 589.383 368.132 585.102 361.102L599.646 352.481C603.042 358.056 607.848 361.559 614.064 362.988C618.511 363.981 622.637 363.35 626.442 361.095C631.351 358.185 632.363 351.069 629.476 339.748C628.736 336.887 627.417 332.39 625.519 326.257C623.399 319.76 621.994 314.984 621.303 311.929C619.374 300.535 621.563 291.649 627.869 285.272C629.783 283.478 631.967 281.853 634.422 280.398ZM671.52 309.63L686.064 301.009C692.413 311.432 693.616 322.184 689.673 333.264C687.077 340.247 683.018 345.375 677.495 348.649L666.353 335.705C673.104 331.703 675.615 325.266 673.885 316.393C673.416 313.702 672.627 311.448 671.52 309.63Z" fill="black"/>
<path d="M733.29 349.338C737.095 347.082 740.866 347.239 744.602 349.809C745.831 350.73 746.815 351.796 747.553 353.008C749.768 356.645 749.674 360.33 747.271 364.064C746.339 365.276 745.259 366.246 744.032 366.973C740.35 369.156 736.616 369.06 732.83 366.684C731.601 365.763 730.618 364.697 729.879 363.485C727.591 359.727 727.648 355.982 730.051 352.248C730.983 351.035 732.063 350.065 733.29 349.338ZM620.842 417.724L717.864 360.214L727.166 375.486L630.143 432.996L620.842 417.724Z" fill="black"/>
<path d="M674.271 444.56C667.766 448.416 663.327 454.429 660.953 462.6C658.237 472.128 659.795 481.68 665.627 491.255L680.356 482.525C676.369 475.98 675.982 469.859 679.193 464.161C680.321 462.173 681.744 460.669 683.462 459.651L728.199 433.132C732.127 430.804 736.72 430.804 741.979 433.13C745.518 434.827 748.358 437.432 750.499 440.947L765.227 432.217C758.14 420.581 748.222 414.583 735.474 414.221C729.161 414.004 723.795 415.205 719.377 417.824L674.271 444.56ZM755.298 449.238C758.915 455.177 758.848 460.826 755.096 466.184C753.649 468.197 751.919 469.882 749.906 471.24L745.488 473.859L759.648 484.766C768.608 479.455 773.696 471.491 774.912 460.872C775.617 453.526 774.049 446.701 770.21 440.398L755.298 449.238ZM670.426 499.546C675.545 508.224 683.436 513.775 694.099 516.197C702.723 518.014 710.287 516.995 716.792 513.139L713.494 495.793C713.371 495.866 713.248 495.939 713.125 496.011C713.003 496.084 712.757 496.23 712.389 496.448C712.021 496.666 711.714 496.848 711.468 496.993C711.223 497.139 710.916 497.321 710.548 497.539C710.302 497.685 710.057 497.83 709.812 497.976L709.333 498.012C702.09 501.48 695.543 500.742 689.692 495.797C687.971 494.343 686.52 492.646 685.339 490.707L670.426 499.546Z" fill="black"/>
<path d="M438.541 -189.588C433.238 -186.401 429.611 -181.445 427.66 -174.719C425.428 -166.876 426.674 -159.023 431.398 -151.16L443.405 -158.375C440.176 -163.749 439.875 -168.783 442.502 -173.477C443.424 -175.115 444.586 -176.355 445.987 -177.197L482.458 -199.111C485.66 -201.035 489.398 -201.046 493.673 -199.145C496.55 -197.757 498.855 -195.62 500.589 -192.734L512.596 -199.949C506.855 -209.503 498.797 -214.415 488.422 -214.683C483.285 -214.847 478.915 -213.847 475.313 -211.683L438.541 -189.588ZM504.476 -185.926C507.406 -181.049 507.338 -176.403 504.272 -171.987C503.089 -170.328 501.678 -168.938 500.036 -167.816L496.434 -165.652L507.934 -156.713C515.238 -161.102 519.398 -167.665 520.412 -176.402C521.002 -182.446 519.743 -188.055 516.633 -193.231L504.476 -185.926ZM435.285 -144.352C439.431 -137.225 445.84 -132.678 454.513 -130.71C461.527 -129.235 467.686 -130.091 472.989 -133.277L470.345 -147.537C470.245 -147.477 470.144 -147.417 470.044 -147.357C469.944 -147.297 469.744 -147.177 469.444 -146.996C469.144 -146.816 468.894 -146.666 468.694 -146.545C468.493 -146.425 468.243 -146.275 467.943 -146.094C467.743 -145.974 467.543 -145.854 467.343 -145.734L466.953 -145.703C461.051 -142.833 455.724 -143.426 450.973 -147.48C449.576 -148.672 448.399 -150.064 447.442 -151.657L435.285 -144.352Z" fill="black"/>
<path d="M461.847 -100.485L567.81 -164.154L575.793 -150.867L469.83 -87.1983L461.847 -100.485Z" fill="black"/>
<path d="M500.98 -78.1921C495.477 -74.8854 492.439 -69.4026 491.866 -61.7435C491.415 -55.2414 493.043 -48.905 496.751 -42.7343L508.458 -49.7686C503.455 -58.5476 504.126 -64.9108 510.47 -68.8581L514.523 -71.2931C516.784 -72.5162 518.743 -72.881 520.402 -72.3874C522.22 -71.8544 527.121 -67.5518 535.103 -59.4796C541.329 -53.1968 545.92 -49.1824 548.876 -47.4364L531.616 -37.0654C525.112 -33.1575 519.476 -34.0381 514.708 -39.707C514.01 -40.6422 513.392 -41.5576 512.854 -42.4533L501.147 -35.4191C505.433 -28.5124 510.473 -24.0905 516.267 -22.1536C514.619 -16.964 515.29 -11.8811 518.28 -6.90472L530.137 -14.0291C528.782 -16.7371 529.626 -19.0727 532.668 -21.036L573.792 -45.746C580.196 -49.5938 584.334 -55.399 586.207 -63.1617C587.858 -70.3852 586.621 -77.4307 582.495 -84.298L570.938 -77.354C573.749 -72.6762 573.941 -68.0505 571.514 -63.4767C570.23 -61.08 568.388 -59.1602 565.986 -57.7172L563.135 -56.0038C560.633 -54.5007 554.173 -58.679 543.755 -68.5387C534.354 -77.3844 528.775 -82.363 527.018 -83.4744C520.966 -86.7466 514.689 -86.4288 508.185 -82.5209L500.98 -78.1921ZM543.783 -102.488L546.219 -88.9158C551.822 -92.2826 557.1 -92.3383 562.052 -89.0827C563.869 -87.8717 565.346 -86.3207 566.482 -84.4297L578.189 -91.464C574.063 -98.3313 568.033 -102.7 560.1 -104.571C554.025 -106.068 548.586 -105.374 543.783 -102.488Z" fill="black"/>
<path d="M549.708 -2.53571L559.046 7.90546C554.543 10.6109 552.396 15.0841 552.605 21.3251C552.88 24.2755 553.595 26.8258 554.751 28.976L542.894 36.1004C537.093 26.4463 536.26 17.1264 540.394 8.14059C542.601 3.42792 545.705 -0.130845 549.708 -2.53571ZM587.078 -23.9742C596.184 -29.4452 605.419 -29.3731 614.786 -23.7577C619.279 -21.0392 622.722 -17.6894 625.114 -13.7084L613.407 -6.67413C610.656 -11.2524 606.632 -13.6432 601.334 -13.8468C598.656 -13.9983 596.266 -13.4428 594.165 -12.1803C590.963 -10.2564 589.856 -6.20503 590.845 -0.0262604C591.517 4.7177 593.811 13.2955 597.728 25.707C600.393 33.3166 599.942 40.1577 596.373 46.2304C594.468 49.4067 591.765 52.047 588.263 54.1513C578.657 59.9229 569.251 60.3598 560.043 55.4618C554.65 52.6064 550.22 48.2924 546.751 42.5199L558.608 35.3955C561.359 39.9737 565.263 42.8435 570.318 44.005C573.935 44.8118 577.295 44.2833 580.397 42.4195C584.399 40.0146 585.239 34.1594 582.916 24.8539C582.32 22.5026 581.257 18.8067 579.726 13.7662C578.016 8.42714 576.884 4.50214 576.328 1.99122C574.785 -7.37645 576.587 -14.6902 581.734 -19.9501C583.296 -21.4304 585.077 -22.7717 587.078 -23.9742ZM617.204 -0.0151849L629.061 -7.1396C634.203 1.41969 635.158 10.2607 631.923 19.3834C629.795 25.1328 626.479 29.3602 621.976 32.0657L612.938 21.4441C618.442 18.1374 620.5 12.8369 619.113 5.54266C618.737 3.33033 618.101 1.47772 617.204 -0.0151849Z" fill="black"/>
<path d="M594.06 71.2793L603.398 81.7204C598.896 84.4259 596.749 88.8991 596.958 95.14C597.233 98.0905 597.948 100.641 599.104 102.791L587.247 109.915C581.446 100.261 580.612 90.9414 584.746 81.9556C586.953 77.2429 590.058 73.6841 594.06 71.2793ZM631.431 49.8408C640.536 44.3697 649.772 44.4419 659.138 50.0572C663.631 52.7758 667.074 56.1255 669.466 60.1066L657.759 67.1408C655.008 62.5626 650.984 60.1717 645.687 59.9682C643.008 59.8167 640.618 60.3722 638.517 61.6347C635.315 63.5586 634.209 67.6099 635.198 73.7887C635.869 78.5327 638.163 87.1104 642.08 99.522C644.746 107.132 644.294 113.973 640.725 120.045C638.821 123.222 636.117 125.862 632.615 127.966C623.01 133.738 613.603 134.175 604.396 129.277C599.003 126.421 594.572 122.107 591.104 116.335L602.961 109.21C605.712 113.789 609.615 116.659 614.671 117.82C618.288 118.627 621.647 118.098 624.749 116.234C628.752 113.83 629.591 107.974 627.268 98.6689C626.673 96.3176 625.61 92.6217 624.079 87.5812C622.369 82.2421 621.236 78.3171 620.681 75.8062C619.138 66.4385 620.939 59.1248 626.086 53.8649C627.648 52.3846 629.43 51.0432 631.431 49.8408ZM661.556 73.7998L673.413 66.6754C678.556 75.2347 679.51 84.0757 676.276 93.1984C674.147 98.9477 670.831 103.175 666.329 105.881L657.291 95.2591C662.794 91.9524 664.852 86.6519 663.466 79.3576C663.09 77.1453 662.453 75.2927 661.556 73.7998Z" fill="black"/>
<path d="M711.737 106.319C714.839 104.456 717.907 104.576 720.942 106.681C721.941 107.436 722.739 108.311 723.337 109.306C725.131 112.292 725.046 115.323 723.081 118.4C722.32 119.399 721.439 120.199 720.438 120.801C717.437 122.604 714.398 122.534 711.323 120.588C710.324 119.834 709.526 118.959 708.928 117.963C707.074 114.878 707.13 111.797 709.094 108.72C709.856 107.721 710.737 106.921 711.737 106.319ZM620.06 162.827L699.157 115.301L706.692 127.841L627.595 175.367L620.06 162.827Z" fill="black"/>
<path d="M663.483 184.778C658.18 187.964 654.553 192.92 652.602 199.646C650.369 207.49 651.615 215.343 656.34 223.206L668.347 215.991C665.118 210.617 664.816 205.582 667.443 200.888C668.366 199.25 669.527 198.011 670.928 197.169L707.4 175.255C710.602 173.331 714.34 173.319 718.615 175.221C721.491 176.608 723.796 178.745 725.531 181.631L737.538 174.417C731.797 164.862 723.739 159.951 713.364 159.683C708.227 159.519 703.857 160.519 700.255 162.683L663.483 184.778ZM729.417 188.44C732.347 193.316 732.28 197.963 729.213 202.379C728.031 204.038 726.619 205.428 724.978 206.549L721.376 208.714L732.875 217.653C740.18 213.264 744.339 206.701 745.354 197.964C745.944 191.92 744.684 186.31 741.574 181.135L729.417 188.44ZM660.226 230.014C664.372 237.14 670.781 241.688 679.454 243.656C686.468 245.131 692.627 244.275 697.93 241.088L695.286 226.828C695.186 226.888 695.086 226.949 694.986 227.009C694.886 227.069 694.686 227.189 694.386 227.369C694.085 227.55 693.835 227.7 693.635 227.82C693.435 227.941 693.185 228.091 692.885 228.271C692.685 228.391 692.484 228.512 692.284 228.632L691.894 228.663C685.992 231.532 680.666 230.94 675.915 226.886C674.517 225.694 673.34 224.301 672.383 222.709L660.226 230.014Z" fill="black"/>
<path d="M159.156 -38.772C156.318 -37.0895 154.38 -34.4655 153.345 -30.9002C152.16 -26.7424 152.839 -22.5743 155.384 -18.396L161.811 -22.2056C160.072 -25.0617 159.903 -27.7329 161.304 -30.2192C161.796 -31.0867 162.417 -31.7428 163.167 -32.1872L182.688 -43.7588C184.402 -44.7747 186.407 -44.775 188.702 -43.7598C190.246 -43.0195 191.485 -41.8825 192.419 -40.3487L198.846 -44.1582C195.754 -49.2357 191.426 -51.8533 185.863 -52.011C183.108 -52.1058 180.767 -51.5817 178.839 -50.4388L159.156 -38.772ZM194.513 -36.731C196.092 -34.1393 196.062 -31.6744 194.425 -29.3362C193.794 -28.458 193.039 -27.7226 192.16 -27.13L190.232 -25.9872L196.412 -21.2276C200.321 -23.5451 202.541 -27.0207 203.072 -31.6544C203.38 -34.86 202.696 -37.8379 201.021 -40.5881L194.513 -36.731ZM157.478 -14.7783C159.712 -10.9914 163.155 -8.56936 167.808 -7.51224C171.571 -6.71944 174.872 -7.16433 177.711 -8.84688L176.271 -16.416C176.218 -16.3842 176.164 -16.3525 176.111 -16.3207C176.057 -16.289 175.95 -16.2255 175.789 -16.1303C175.629 -16.035 175.495 -15.9557 175.388 -15.8922C175.281 -15.8287 175.147 -15.7493 174.986 -15.6541C174.879 -15.5906 174.772 -15.5271 174.665 -15.4636L174.456 -15.4477C171.295 -13.9343 168.439 -14.2565 165.885 -16.4142C165.134 -17.0488 164.501 -17.7893 163.986 -18.6355L157.478 -14.7783Z" fill="black"/>
<path d="M171.786 8.53347L228.504 -25.086L232.804 -18.0251L176.087 15.5943L171.786 8.53347Z" fill="black"/>
<path d="M192.802 20.4187C189.856 22.1648 188.236 25.069 187.94 29.1314C187.708 32.5802 188.591 35.9443 190.588 39.2234L196.854 35.5091C194.159 30.8442 194.509 27.4694 197.904 25.3847L200.073 24.099C201.284 23.4535 202.334 23.2629 203.224 23.5272C204.199 23.8127 206.833 26.1026 211.125 30.397C214.473 33.7394 216.941 35.876 218.528 36.8067L209.29 42.2829C205.808 44.3464 202.785 43.8709 200.22 40.8563C199.845 40.3591 199.512 39.8725 199.222 39.3965L192.956 43.1109C195.264 46.7814 197.973 49.1348 201.083 50.171C200.207 52.9217 200.574 55.6194 202.185 58.2639L208.531 54.5019C207.801 53.0633 208.25 51.8254 209.878 50.7884L231.89 37.7406C235.318 35.7089 237.528 32.6353 238.52 28.5198C239.395 24.69 238.721 20.9505 236.498 17.301L230.312 20.9677C231.826 23.4536 231.936 25.9079 230.642 28.3307C229.957 29.6004 228.972 30.6161 227.687 31.378L226.16 32.2828C224.821 33.0765 221.351 30.8501 215.751 25.6039C210.697 20.897 207.698 18.2475 206.754 17.6552C203.505 15.9102 200.139 16.0694 196.658 18.133L192.802 20.4187ZM215.715 7.59295L217.041 14.7971C220.04 13.0193 222.87 12.9977 225.53 14.7322C226.506 15.3773 227.3 16.2024 227.912 17.2073L234.178 13.493C231.956 9.84354 228.716 7.51669 224.46 6.51239C221.2 5.70894 218.285 6.06912 215.715 7.59295Z" fill="black"/>
<path d="M219.042 60.6286L224.064 66.1818C221.654 67.6104 220.51 69.9803 220.632 73.2915C220.783 74.8572 221.171 76.2113 221.794 77.3537L215.447 81.1156C212.322 75.9853 211.861 71.0396 214.064 66.2787C215.24 63.7818 216.9 61.8984 219.042 60.6286ZM239.046 49.3109C243.92 46.4219 248.872 46.474 253.902 49.467C256.316 50.9159 258.166 52.6982 259.455 54.8138L253.189 58.5281C251.707 56.0952 249.546 54.8208 246.705 54.7049C245.269 54.6205 243.988 54.9116 242.864 55.5783C241.15 56.5942 240.563 58.7419 241.102 62.0213C241.469 64.5391 242.712 69.0932 244.831 75.6836C246.272 79.7245 246.04 83.3532 244.136 86.5696C243.119 88.2518 241.674 89.6485 239.799 90.7596C234.658 93.8073 229.615 94.025 224.671 91.4128C221.775 89.8899 219.393 87.5947 217.525 84.527L223.871 80.7651C225.353 83.198 227.45 84.7264 230.163 85.3501C232.103 85.7835 233.904 85.5081 235.564 84.524C237.706 83.2541 238.148 80.1491 236.888 75.2089C236.565 73.9606 235.99 71.9983 235.161 69.3219C234.237 66.4868 233.623 64.4029 233.322 63.0699C232.48 58.0979 233.435 54.2205 236.187 51.4377C237.022 50.6547 237.975 49.9458 239.046 49.3109ZM255.235 62.0665L261.581 58.3046C264.352 62.8531 264.877 67.5448 263.156 72.3798C262.023 75.4268 260.252 77.6645 257.842 79.0931L252.98 73.4447C255.926 71.6987 257.021 68.8897 256.267 65.0179C256.062 63.8437 255.718 62.8599 255.235 62.0665Z" fill="black"/>
<path d="M242.934 99.855L247.956 105.408C245.546 106.837 244.402 109.207 244.523 112.518C244.675 114.084 245.062 115.438 245.685 116.58L239.339 120.342C236.214 115.212 235.753 110.266 237.956 105.505C239.132 103.008 240.791 101.125 242.934 99.855ZM262.938 88.5373C267.812 85.6484 272.764 85.7004 277.794 88.6935C280.207 90.1424 282.058 91.9247 283.347 94.0403L277.08 97.7546C275.599 95.3216 273.437 94.0472 270.597 93.9313C269.161 93.8469 267.88 94.1381 266.755 94.8048C265.041 95.8206 264.454 97.9683 264.994 101.248C265.361 103.766 266.604 108.32 268.723 114.91C270.164 118.951 269.932 122.58 268.027 125.796C267.011 127.478 265.566 128.875 263.691 129.986C258.55 133.034 253.507 133.251 248.563 130.639C245.667 129.116 243.285 126.821 241.417 123.753L247.763 119.992C249.245 122.424 251.342 123.953 254.055 124.577C255.995 125.01 257.795 124.735 259.456 123.75C261.598 122.481 262.039 119.376 260.78 114.435C260.457 113.187 259.881 111.225 259.053 108.548C258.128 105.713 257.515 103.629 257.213 102.296C256.372 97.3244 257.327 93.4469 260.078 90.6642C260.914 89.8812 261.867 89.1722 262.938 88.5373ZM279.126 101.293L285.473 97.531C288.243 102.08 288.768 106.771 287.048 111.606C285.915 114.653 284.144 116.891 281.733 118.32L276.872 112.671C279.817 110.925 280.913 108.116 280.158 104.244C279.953 103.07 279.609 102.086 279.126 101.293Z" fill="black"/>
<path d="M306.081 118.62C307.741 117.636 309.386 117.704 311.017 118.826C311.553 119.227 311.982 119.693 312.304 120.222C313.271 121.808 313.23 123.417 312.181 125.046C311.774 125.575 311.303 125.998 310.768 126.316C309.161 127.268 307.532 127.226 305.88 126.189C305.344 125.788 304.914 125.322 304.592 124.793C303.594 123.154 303.619 121.519 304.667 119.89C305.074 119.361 305.545 118.938 306.081 118.62ZM257.012 148.462L299.349 123.366L303.408 130.03L261.071 155.126L257.012 148.462Z" fill="black"/>
<path d="M280.327 160.172C277.488 161.854 275.551 164.478 274.515 168.044C273.33 172.201 274.01 176.369 276.555 180.548L282.982 176.738C281.242 173.882 281.073 171.211 282.475 168.725C282.967 167.857 283.588 167.201 284.337 166.757L303.859 155.185C305.573 154.169 307.577 154.169 309.872 155.184C311.416 155.924 312.656 157.061 313.59 158.595L320.017 154.786C316.924 149.708 312.596 147.091 307.033 146.933C304.279 146.838 301.937 147.362 300.009 148.505L280.327 160.172ZM315.684 162.213C317.262 164.804 317.233 167.269 315.596 169.608C314.964 170.486 314.209 171.221 313.331 171.814L311.403 172.957L317.582 177.716C321.492 175.399 323.712 171.923 324.243 167.289C324.55 164.084 323.866 161.106 322.191 158.356L315.684 162.213ZM278.649 184.165C280.883 187.952 284.326 190.374 288.979 191.432C292.742 192.224 296.043 191.779 298.881 190.097L297.442 182.528C297.388 182.56 297.335 182.591 297.281 182.623C297.228 182.655 297.121 182.718 296.96 182.814C296.799 182.909 296.665 182.988 296.558 183.052C296.451 183.115 296.317 183.194 296.157 183.29C296.05 183.353 295.942 183.417 295.835 183.48L295.626 183.496C292.466 185.009 289.609 184.687 287.056 182.53C286.305 181.895 285.672 181.155 285.156 180.308L278.649 184.165Z" fill="black"/>
<path d="M221.221 -96.8462C218.382 -95.1637 216.445 -92.5397 215.409 -88.9744C214.224 -84.8166 214.904 -80.6486 217.449 -76.4702L223.876 -80.2798C222.136 -83.1359 221.967 -85.8071 223.369 -88.2934C223.861 -89.161 224.482 -89.817 225.231 -90.2614L244.753 -101.833C246.467 -102.849 248.471 -102.849 250.766 -101.834C252.311 -101.094 253.55 -99.9567 254.484 -98.4229L260.911 -102.232C257.818 -107.31 253.491 -109.927 247.927 -110.085C245.173 -110.18 242.831 -109.656 240.903 -108.513L221.221 -96.8462ZM256.578 -94.8052C258.157 -92.2136 258.127 -89.7486 256.49 -87.4104C255.858 -86.5322 255.103 -85.7968 254.225 -85.2042L252.297 -84.0614L258.476 -79.3018C262.386 -81.6193 264.606 -85.0949 265.137 -89.7287C265.444 -92.9342 264.76 -95.9121 263.085 -98.6624L256.578 -94.8052ZM219.543 -72.8525C221.777 -69.0656 225.22 -66.6436 229.873 -65.5865C233.636 -64.7937 236.937 -65.2385 239.775 -66.9211L238.336 -74.4902C238.283 -74.4585 238.229 -74.4267 238.175 -74.395C238.122 -74.3632 238.015 -74.2997 237.854 -74.2045C237.693 -74.1093 237.56 -74.0299 237.452 -73.9664C237.345 -73.9029 237.211 -73.8235 237.051 -73.7283C236.944 -73.6648 236.837 -73.6013 236.729 -73.5378L236.52 -73.5219C233.36 -72.0086 230.503 -72.3307 227.95 -74.4884C227.199 -75.1231 226.566 -75.8635 226.05 -76.7097L219.543 -72.8525Z" fill="black"/>
<path d="M233.851 -49.5407L290.568 -83.1602L294.869 -76.0994L238.151 -42.4799L233.851 -49.5407Z" fill="black"/>
<path d="M254.867 -37.6555C251.921 -35.9095 250.3 -33.0052 250.005 -28.9428C249.773 -25.494 250.655 -22.13 252.653 -18.8508L258.919 -22.5651C256.223 -27.23 256.573 -30.6048 259.969 -32.6895L262.138 -33.9752C263.348 -34.6207 264.399 -34.8114 265.288 -34.547C266.264 -34.2616 268.898 -31.9716 273.19 -27.6772C276.538 -24.3348 279.006 -22.1982 280.593 -21.2676L271.354 -15.7913C267.873 -13.7278 264.85 -14.2033 262.285 -17.2179C261.909 -17.7151 261.576 -18.2017 261.286 -18.6777L255.02 -14.9634C257.329 -11.2928 260.038 -8.93942 263.147 -7.90319C262.271 -5.15248 262.639 -2.45487 264.25 0.189636L270.596 -3.57231C269.866 -5.01095 270.314 -6.24878 271.943 -7.28581L293.955 -20.3336C297.382 -22.3653 299.592 -25.4389 300.585 -29.5544C301.459 -33.3842 300.785 -37.1238 298.562 -40.7732L292.377 -37.1065C293.891 -34.6206 294.001 -32.1663 292.706 -29.7435C292.022 -28.4739 291.037 -27.4581 289.751 -26.6962L288.225 -25.7914C286.886 -24.9978 283.416 -27.2241 277.815 -32.4704C272.762 -37.1772 269.763 -39.8268 268.819 -40.419C265.569 -42.164 262.204 -42.0048 258.723 -39.9413L254.867 -37.6555ZM277.779 -50.4813L279.106 -43.2771C282.105 -45.0549 284.935 -45.0766 287.595 -43.342C288.571 -42.6969 289.365 -41.8718 289.977 -40.8669L296.243 -44.5813C294.02 -48.2307 290.781 -50.5575 286.524 -51.5618C283.265 -52.3653 280.35 -52.0051 277.779 -50.4813Z" fill="black"/>
<path d="M281.107 2.55438L286.129 8.10755C283.719 9.53614 282.575 11.9061 282.696 15.2173C282.848 16.783 283.235 18.137 283.858 19.2795L277.512 23.0414C274.387 17.9111 273.926 12.9654 276.129 8.20446C277.305 5.70759 278.964 3.82423 281.107 2.55438ZM301.111 -8.76337C305.985 -11.6523 310.937 -11.6002 315.967 -8.6072C318.38 -7.15827 320.231 -5.37601 321.52 -3.26041L315.253 0.453921C313.772 -1.97902 311.61 -3.25344 308.77 -3.36932C307.334 -3.45371 306.053 -3.16257 304.928 -2.4959C303.215 -1.48001 302.627 0.667645 303.167 3.94708C303.534 6.46484 304.777 11.0189 306.896 17.6094C308.337 21.6503 308.105 25.279 306.2 28.4954C305.184 30.1776 303.739 31.5743 301.864 32.6854C296.723 35.7331 291.68 35.9508 286.736 33.3386C283.84 31.8157 281.458 29.5204 279.59 26.4528L285.936 22.6909C287.418 25.1238 289.515 26.6521 292.228 27.2759C294.168 27.7093 295.969 27.4339 297.629 26.4498C299.771 25.1799 300.212 22.0749 298.953 17.1346C298.63 15.8864 298.054 13.924 297.226 11.2477C296.301 8.41262 295.688 6.32864 295.386 4.99573C294.545 0.0236903 295.5 -3.85371 298.252 -6.63648C299.087 -7.41948 300.04 -8.12844 301.111 -8.76337ZM317.299 3.99228L323.646 0.230337C326.416 4.77888 326.941 9.47062 325.221 14.3056C324.088 17.3525 322.317 19.5903 319.907 21.0189L315.045 15.3705C317.991 13.6244 319.086 10.8155 318.331 6.94368C318.127 5.76943 317.782 4.78563 317.299 3.99228Z" fill="black"/>
<path d="M304.998 41.7808L310.021 47.334C307.611 48.7626 306.466 51.1325 306.588 54.4437C306.74 56.0094 307.127 57.3635 307.75 58.5059L301.403 62.2679C298.279 57.1375 297.818 52.1919 300.02 47.4309C301.197 44.934 302.856 43.0507 304.998 41.7808ZM325.003 30.4631C329.876 27.5742 334.828 27.6262 339.859 30.6192C342.272 32.0682 344.123 33.8504 345.411 35.966L339.145 39.6804C337.663 37.2474 335.502 35.973 332.662 35.8571C331.225 35.7727 329.945 36.0639 328.82 36.7305C327.106 37.7464 326.519 39.8941 327.059 43.1735C327.426 45.6913 328.669 50.2454 330.788 56.8358C332.228 60.8768 331.996 64.5054 330.092 67.7218C329.076 69.4041 327.63 70.8007 325.756 71.9119C320.614 74.9595 315.571 75.1773 310.627 72.5651C307.732 71.0422 305.35 68.7469 303.481 65.6793L309.828 61.9173C311.31 64.3503 313.407 65.8786 316.119 66.5023C318.06 66.9357 319.86 66.6603 321.52 65.6762C323.663 64.4064 324.104 61.3013 322.845 56.3611C322.522 55.1128 321.946 53.1505 321.118 50.4741C320.193 47.6391 319.58 45.5551 319.278 44.2222C318.437 39.2501 319.392 35.3727 322.143 32.59C322.978 31.807 323.932 31.098 325.003 30.4631ZM341.191 43.2187L347.537 39.4568C350.308 44.0053 350.833 48.6971 349.113 53.532C347.98 56.579 346.208 58.8168 343.798 60.2454L338.936 54.5969C341.882 52.8509 342.978 50.0419 342.223 46.1701C342.018 44.9959 341.674 44.0121 341.191 43.2187Z" fill="black"/>
<path d="M368.145 60.5459C369.806 59.5618 371.451 59.6302 373.081 60.7514C373.618 61.1533 374.047 61.6187 374.369 62.1476C375.336 63.7343 375.294 65.3423 374.246 66.9717C373.839 67.5007 373.368 67.9239 372.832 68.2414C371.226 69.1938 369.596 69.1517 367.945 68.1153C367.408 67.7134 366.979 67.248 366.657 66.7191C365.658 65.0795 365.683 63.445 366.732 61.8156C367.139 61.2866 367.61 60.8634 368.145 60.5459ZM319.077 90.3873L361.414 65.2918L365.473 71.9559L323.136 97.0514L319.077 90.3873Z" fill="black"/>
<path d="M342.391 102.098C339.553 103.78 337.616 106.404 336.58 109.969C335.395 114.127 336.075 118.295 338.62 122.474L345.046 118.664C343.307 115.808 343.138 113.137 344.539 110.65C345.031 109.783 345.652 109.127 346.402 108.682L365.924 97.1108C367.638 96.0949 369.642 96.0946 371.937 97.1098C373.481 97.8501 374.72 98.9871 375.655 100.521L382.081 96.7114C378.989 91.6339 374.661 89.0163 369.098 88.8586C366.343 88.7638 364.002 89.2879 362.074 90.4308L342.391 102.098ZM377.749 104.139C379.327 106.73 379.298 109.195 377.66 111.533C377.029 112.412 376.274 113.147 375.396 113.74L373.468 114.882L379.647 119.642C383.557 117.324 385.777 113.849 386.308 109.215C386.615 106.01 385.931 103.032 384.256 100.281L377.749 104.139ZM340.714 126.091C342.947 129.878 346.391 132.3 351.044 133.357C354.807 134.15 358.107 133.705 360.946 132.023L359.507 124.454C359.453 124.485 359.4 124.517 359.346 124.549C359.293 124.581 359.185 124.644 359.025 124.739C358.864 124.835 358.73 124.914 358.623 124.977C358.516 125.041 358.382 125.12 358.221 125.216C358.114 125.279 358.007 125.342 357.9 125.406L357.691 125.422C354.531 126.935 351.674 126.613 349.121 124.455C348.37 123.821 347.736 123.08 347.221 122.234L340.714 126.091Z" fill="black"/>
<path d="M585.977 785.466C584.085 786.588 582.793 788.337 582.103 790.714C581.313 793.486 581.766 796.264 583.463 799.05L587.747 796.51C586.588 794.606 586.475 792.825 587.409 791.168C587.737 790.589 588.151 790.152 588.651 789.856L601.665 782.141C602.808 781.464 604.144 781.464 605.674 782.141C606.704 782.634 607.53 783.392 608.153 784.415L612.437 781.875C610.376 778.49 607.49 776.745 603.782 776.64C601.945 776.577 600.384 776.926 599.099 777.688L585.977 785.466ZM609.549 786.827C610.601 788.554 610.581 790.198 609.49 791.757C609.069 792.342 608.566 792.832 607.98 793.227L606.695 793.989L610.814 797.162C613.421 795.617 614.901 793.3 615.255 790.211C615.46 788.074 615.004 786.089 613.887 784.255L609.549 786.827ZM584.859 801.462C586.348 803.986 588.643 805.601 591.745 806.306C594.254 806.834 596.455 806.538 598.347 805.416L597.387 800.37C597.352 800.391 597.316 800.412 597.28 800.433C597.245 800.455 597.173 800.497 597.066 800.56C596.959 800.624 596.87 800.677 596.798 800.719C596.727 800.762 596.638 800.814 596.53 800.878C596.459 800.92 596.388 800.963 596.316 801.005L596.177 801.016C594.07 802.024 592.166 801.81 590.463 800.371C589.963 799.948 589.54 799.454 589.197 798.89L584.859 801.462Z" fill="black"/>
<path d="M594.397 817.003L632.209 794.59L635.076 799.297L597.264 821.71L594.397 817.003Z" fill="black"/>
<path d="M608.408 824.926C606.444 826.091 605.364 828.027 605.166 830.735C605.012 833.034 605.6 835.277 606.932 837.463L611.109 834.987C609.312 831.877 609.546 829.627 611.809 828.237L613.255 827.38C614.062 826.95 614.762 826.823 615.356 826.999C616.006 827.189 617.762 828.716 620.623 831.579C622.855 833.807 624.5 835.231 625.559 835.852L619.4 839.503C617.079 840.878 615.063 840.561 613.353 838.552C613.103 838.22 612.881 837.896 612.688 837.578L608.51 840.055C610.049 842.502 611.855 844.071 613.928 844.761C613.344 846.595 613.589 848.394 614.663 850.157L618.894 847.649C618.407 846.69 618.706 845.864 619.792 845.173L634.466 836.474C636.752 835.12 638.225 833.071 638.886 830.327C639.47 827.774 639.02 825.281 637.538 822.848L633.414 825.292C634.424 826.95 634.497 828.586 633.634 830.201C633.178 831.048 632.521 831.725 631.664 832.233L630.647 832.836C629.754 833.365 627.441 831.881 623.707 828.383C620.338 825.245 618.339 823.479 617.709 823.084C615.543 821.921 613.299 822.027 610.979 823.403L608.408 824.926ZM623.683 816.376L624.567 821.179C626.567 819.994 628.453 819.979 630.226 821.135C630.877 821.566 631.407 822.116 631.815 822.786L635.992 820.309C634.51 817.876 632.351 816.325 629.513 815.656C627.34 815.12 625.397 815.36 623.683 816.376Z" fill="black"/>
<path d="M546.482 807.509L549.831 811.211C548.224 812.163 547.461 813.743 547.542 815.951C547.643 816.995 547.902 817.897 548.317 818.659L544.086 821.167C542.003 817.747 541.695 814.45 543.164 811.276C543.948 809.611 545.054 808.356 546.482 807.509ZM559.819 799.964C563.068 798.038 566.369 798.073 569.723 800.068C571.331 801.034 572.565 802.222 573.424 803.632L569.247 806.109C568.259 804.487 566.818 803.637 564.925 803.56C563.967 803.504 563.113 803.698 562.364 804.142C561.221 804.819 560.83 806.251 561.189 808.437C561.434 810.116 562.263 813.152 563.675 817.546C564.636 820.24 564.481 822.659 563.212 824.803C562.534 825.924 561.57 826.856 560.321 827.596C556.893 829.628 553.531 829.773 550.235 828.032C548.305 827.017 546.717 825.486 545.471 823.441L549.702 820.933C550.69 822.555 552.088 823.574 553.896 823.99C555.19 824.279 556.39 824.095 557.497 823.439C558.925 822.593 559.22 820.523 558.38 817.229C558.165 816.397 557.781 815.089 557.229 813.304C556.612 811.414 556.203 810.025 556.002 809.137C555.441 805.822 556.078 803.237 557.912 801.382C558.469 800.86 559.105 800.387 559.819 799.964ZM570.611 808.468L574.842 805.96C576.689 808.992 577.039 812.12 575.892 815.343C575.137 817.374 573.956 818.866 572.349 819.819L569.108 816.053C571.072 814.889 571.802 813.016 571.299 810.435C571.162 809.652 570.933 808.996 570.611 808.468Z" fill="black"/>
<path d="M562.41 833.66L565.758 837.362C564.152 838.314 563.389 839.894 563.47 842.102C563.571 843.146 563.829 844.048 564.245 844.81L560.014 847.318C557.93 843.898 557.623 840.601 559.092 837.427C559.876 835.762 560.982 834.506 562.41 833.66ZM575.746 826.115C578.996 824.189 582.297 824.224 585.65 826.219C587.259 827.185 588.493 828.373 589.352 829.783L585.175 832.26C584.187 830.638 582.746 829.788 580.852 829.711C579.895 829.655 579.041 829.849 578.291 830.293C577.149 830.97 576.757 832.402 577.117 834.588C577.362 836.267 578.19 839.303 579.603 843.697C580.563 846.391 580.409 848.81 579.139 850.954C578.462 852.075 577.498 853.007 576.248 853.747C572.821 855.779 569.459 855.924 566.163 854.183C564.232 853.167 562.644 851.637 561.399 849.592L565.63 847.084C566.618 848.706 568.016 849.725 569.824 850.141C571.118 850.43 572.318 850.246 573.425 849.59C574.853 848.744 575.147 846.674 574.308 843.38C574.092 842.548 573.709 841.24 573.157 839.455C572.54 837.565 572.131 836.176 571.93 835.287C571.369 831.973 572.006 829.388 573.84 827.533C574.397 827.011 575.032 826.538 575.746 826.115ZM586.539 834.619L590.77 832.111C592.617 835.143 592.967 838.271 591.82 841.494C591.064 843.525 589.883 845.017 588.277 845.97L585.036 842.204C586.999 841.04 587.73 839.167 587.227 836.586C587.09 835.803 586.861 835.147 586.539 834.619Z" fill="black"/>
<path d="M604.508 846.17C605.615 845.514 606.712 845.56 607.799 846.307C608.157 846.575 608.443 846.885 608.657 847.238C609.302 848.296 609.274 849.368 608.575 850.454C608.304 850.807 607.99 851.089 607.633 851.3C606.562 851.935 605.476 851.907 604.374 851.216C604.017 850.948 603.731 850.638 603.516 850.285C602.85 849.192 602.867 848.103 603.566 847.016C603.837 846.664 604.151 846.382 604.508 846.17ZM571.796 866.064L600.021 849.334L602.727 853.777L574.502 870.507L571.796 866.064Z" fill="black"/>
<path d="M587.339 873.871C585.447 874.993 584.155 876.742 583.465 879.119C582.675 881.891 583.128 884.67 584.824 887.455L589.109 884.915C587.949 883.011 587.837 881.231 588.771 879.573C589.099 878.995 589.513 878.557 590.013 878.261L603.027 870.547C604.17 869.869 605.506 869.869 607.036 870.546C608.065 871.039 608.892 871.797 609.514 872.82L613.799 870.28C611.737 866.895 608.852 865.15 605.143 865.045C603.307 864.982 601.746 865.331 600.461 866.093L587.339 873.871ZM610.91 875.232C611.963 876.96 611.943 878.603 610.852 880.162C610.431 880.747 609.927 881.237 609.342 881.632L608.056 882.394L612.176 885.567C614.782 884.022 616.263 881.705 616.616 878.616C616.821 876.479 616.365 874.494 615.249 872.66L610.91 875.232ZM586.22 889.867C587.71 892.392 590.005 894.006 593.107 894.711C595.616 895.239 597.816 894.943 599.709 893.821L598.749 888.775C598.713 888.796 598.678 888.817 598.642 888.839C598.606 888.86 598.535 888.902 598.428 888.966C598.321 889.029 598.231 889.082 598.16 889.124C598.089 889.167 597.999 889.22 597.892 889.283C597.821 889.325 597.749 889.368 597.678 889.41L597.539 889.421C595.432 890.43 593.527 890.215 591.825 888.776C591.324 888.353 590.902 887.86 590.559 887.295L586.22 889.867Z" fill="black"/>
</svg>
