<svg width="691" height="900" viewBox="0 0 691 900" fill="none" xmlns="http://www.w3.org/2000/svg">
<path d="M117.022 152.383L173.323 113.345C181.619 107.829 191.427 106.813 202.748 110.298C213.828 113.714 222.209 120.89 227.894 131.825L238.587 152.392L220.124 165.194L209.566 144.887C205.867 137.77 200.033 133.905 192.064 133.291C188.489 133.173 185.561 133.904 183.282 135.484L128.577 173.415C123.714 176.787 121.159 182.809 120.913 191.481C120.68 196.601 121.556 201.07 123.541 204.888L133.963 224.935L115.5 237.737L105.214 217.95C97.1831 202.503 96.8075 186.47 104.087 169.852C107.696 161.683 112.007 155.86 117.022 152.383ZM121.997 250.234L283.284 138.756L294.924 161.146L133.772 272.885L121.997 250.234Z" fill="#D2A72F"/>
<path d="M299.589 224.997C304.3 221.731 308.951 221.93 313.543 225.594C315.053 226.908 316.26 228.433 317.162 230.168C319.869 235.376 319.727 240.669 316.735 246.049C315.576 247.797 314.237 249.198 312.718 250.252C308.159 253.412 303.553 253.301 298.899 249.916C297.389 248.601 296.182 247.077 295.28 245.341C292.483 239.96 292.58 234.58 295.572 229.2C296.73 227.452 298.069 226.051 299.589 224.997ZM160.355 324.018L280.478 240.728L291.847 262.597L171.724 345.888L160.355 324.018Z" fill="#D2A72F"/>
<path d="M153.837 421.833L174.459 414.973L199.904 463.919C205.261 473.428 212.304 478.227 221.032 478.314C223.881 478.228 226.142 477.605 227.813 476.446L244.225 465.067C236.118 461.006 230.064 455.523 226.06 448.617L243.611 436.448C247.582 444.085 253.551 448.21 261.519 448.825C265.185 449.116 268.31 448.366 270.893 446.575L326.738 407.854C332.513 403.85 335.176 397.044 334.73 387.436C334.445 382.911 333.4 378.913 331.595 375.442L349.602 362.956C353.663 370.767 355.099 379.098 353.913 387.949C353.941 388.402 353.924 388.768 353.863 389.047L360.701 384.305L371.664 405.394L238.776 497.534C232.242 502.065 223.721 503.369 213.211 501.447C200.128 498.948 190.263 491.502 183.614 479.111L153.837 421.833ZM231.55 371.491L288.534 331.98C295.766 327.201 304.651 326 315.189 328.375C327.512 331.401 336.998 339.109 343.647 351.501L325.64 363.986C321.218 355.482 314.689 351.272 306.051 351.358C302.959 351.377 300.502 352.018 298.678 353.282L242.606 392.162C238.047 395.323 235.419 400.805 234.721 408.609C234.365 414.287 235.495 419.642 238.112 424.676L220.105 437.162C211.955 421.088 211.565 404.829 218.935 388.385C222.482 380.494 226.687 374.863 231.55 371.491Z" fill="#D2A72F"/>
<path d="M412.984 443.121C417.695 439.854 422.346 440.053 426.938 443.717C428.449 445.031 429.655 446.556 430.557 448.292C433.264 453.499 433.122 458.792 430.13 464.172C428.972 465.92 427.632 467.321 426.113 468.375C421.554 471.536 416.948 471.424 412.294 468.039C410.784 466.725 409.577 465.2 408.675 463.464C405.878 458.083 405.975 452.703 408.967 447.323C410.125 445.575 411.464 444.174 412.984 443.121ZM273.75 542.141L393.873 458.851L405.242 480.721L285.119 564.011L273.75 542.141Z" fill="#D2A72F"/>
<path d="M411.802 536.882L430.265 524.081L439.198 541.264L478.631 513.922L490.135 536.052L450.702 563.394L459.364 580.057L440.674 593.016L432.011 576.354L366.593 621.713C355.804 629.194 352.419 638.389 356.436 649.299C357.125 651.419 357.966 653.433 358.958 655.343L360.853 658.988L344.05 677.368L339.177 667.996C328.231 646.541 328.408 628.59 339.71 614.142C343.974 608.824 349.905 603.531 357.503 598.263L420.735 554.066L411.802 536.882Z" fill="#D2A72F"/>
<path d="M391.773 694.008C383.415 699.803 378.786 709.389 377.884 722.765C377.172 734.121 379.613 745.179 385.207 755.941L402.986 743.613C395.44 728.302 396.485 717.188 406.12 710.271L412.274 706.004C415.707 703.859 418.68 703.215 421.192 704.071C423.946 704.994 431.357 712.489 443.424 726.555C452.837 737.502 459.78 744.495 464.253 747.533L438.04 765.708C428.163 772.556 419.622 771.04 412.418 761.159C411.364 759.529 410.431 757.933 409.619 756.37L391.839 768.698C398.308 780.742 405.93 788.445 414.706 791.805C412.184 800.873 413.179 809.747 417.691 818.425L435.698 805.94C433.656 801.216 434.945 797.135 439.566 793.695L502.02 750.39C511.746 743.647 518.045 733.494 520.917 719.932C523.453 707.312 521.608 695.013 515.382 683.037L497.83 695.207C502.071 703.364 502.342 711.441 498.643 719.437C496.687 723.627 493.885 726.987 490.238 729.515L485.907 732.518C482.108 735.152 472.333 727.881 456.58 710.703C442.367 695.292 433.93 686.62 431.271 684.685C422.11 678.994 412.591 679.573 402.714 686.422L391.773 694.008ZM456.771 651.42L460.404 675.111C468.914 669.211 476.916 669.093 484.41 674.76C487.159 676.867 489.391 679.57 491.106 682.868L508.885 670.54C502.659 658.564 493.536 650.958 481.517 647.721C472.314 645.129 464.065 646.362 456.771 651.42Z" fill="#D2A72F"/>
<path d="M441.474 864.77L602.398 753.19L614.444 776.361L453.52 887.941L441.474 864.77Z" fill="#D2A72F"/>
<path d="M-110.034 189.492L-61.1618 155.605C-53.9604 150.817 -45.446 149.935 -35.6185 152.96C-26.0013 155.926 -18.7254 162.154 -13.7908 171.646L-4.50905 189.5L-20.5359 200.613L-29.7001 182.985C-32.9115 176.808 -37.9758 173.452 -44.8929 172.919C-47.9969 172.817 -50.5383 173.451 -52.5169 174.823L-100.004 207.749C-104.225 210.676 -106.443 215.903 -106.657 223.431C-106.859 227.876 -106.098 231.755 -104.375 235.07L-95.3279 252.472L-111.355 263.584L-120.284 246.408C-127.255 232.999 -127.581 219.082 -121.262 204.656C-118.13 197.565 -114.387 192.51 -110.034 189.492ZM-105.715 274.432L34.291 177.663L44.3951 197.099L-95.4936 294.094L-105.715 274.432Z" fill="black"/>
<path d="M48.4444 252.526C52.5336 249.69 56.5713 249.863 60.5576 253.043C61.8685 254.184 62.9156 255.508 63.6988 257.014C66.0486 261.534 65.9251 266.129 63.3282 270.8C62.3225 272.317 61.16 273.533 59.841 274.448C55.8837 277.191 51.8852 277.094 47.8453 274.156C46.5344 273.015 45.4873 271.691 44.704 270.185C42.2759 265.514 42.3603 260.844 44.9571 256.173C45.9629 254.656 47.1253 253.44 48.4444 252.526ZM-72.4186 338.481L31.855 266.18L41.7241 285.165L-62.5494 357.465L-72.4186 338.481Z" fill="black"/>
<path d="M-78.0762 423.39L-60.1757 417.435L-38.0875 459.923C-33.4374 468.177 -27.324 472.343 -19.7474 472.419C-17.2741 472.343 -15.3119 471.803 -13.8609 470.797L0.385197 460.919C-6.65154 457.394 -11.9075 452.634 -15.3827 446.64L-0.147318 436.076C3.29906 442.705 8.4808 446.287 15.3979 446.82C18.5803 447.073 21.2927 446.422 23.5351 444.867L72.0114 411.255C77.0239 407.78 79.3363 401.872 78.9486 393.532C78.7011 389.604 77.7941 386.133 76.2276 383.12L91.8587 372.282C95.3834 379.062 96.6306 386.293 95.6003 393.977C95.625 394.37 95.6106 394.687 95.557 394.929L101.493 390.814L111.01 409.12L-4.3442 489.103C-10.0163 493.036 -17.4136 494.168 -26.5361 492.499C-37.8929 490.33 -46.457 483.867 -52.2284 473.11L-78.0762 423.39ZM-10.6174 379.691L38.8482 345.392C45.1262 341.244 52.8389 340.201 61.9861 342.263C72.6834 344.889 80.9177 351.581 86.6892 362.338L71.058 373.176C67.22 365.793 61.5519 362.139 54.0535 362.214C51.37 362.23 49.2367 362.786 47.6538 363.884L-1.02033 397.633C-4.97758 400.377 -7.25908 405.136 -7.86484 411.911C-8.17386 416.839 -7.19263 421.488 -4.92116 425.858L-20.5523 436.696C-27.6264 422.743 -27.9649 408.629 -21.5676 394.355C-18.4885 387.505 -14.8385 382.617 -10.6174 379.691Z" fill="black"/>
<path d="M146.878 441.869C150.967 439.033 155.005 439.206 158.991 442.386C160.302 443.527 161.349 444.851 162.132 446.357C164.482 450.877 164.358 455.473 161.761 460.143C160.756 461.66 159.593 462.876 158.274 463.791C154.317 466.534 150.318 466.437 146.278 463.499C144.968 462.358 143.921 461.035 143.137 459.528C140.709 454.857 140.793 450.187 143.39 445.516C144.396 443.999 145.559 442.783 146.878 441.869ZM26.0146 527.824L130.288 455.524L140.157 474.508L35.8838 546.808L26.0146 527.824Z" fill="black"/>
<path d="M145.851 523.259L161.878 512.146L169.632 527.063L203.863 503.328L213.849 522.538L179.619 546.273L187.138 560.737L170.914 571.986L163.394 557.522L106.608 596.897C97.2423 603.39 94.3034 611.372 97.7911 620.843C98.3889 622.683 99.1185 624.432 99.9801 626.089L101.625 629.253L87.039 645.209L82.8094 637.073C73.3071 618.449 73.4612 602.866 83.2717 590.325C86.9733 585.708 92.1218 581.114 98.7172 576.541L153.606 538.175L145.851 523.259Z" fill="black"/>
<path d="M128.465 659.653C121.21 664.683 117.191 673.004 116.409 684.616C115.791 694.473 117.91 704.072 122.766 713.414L138.199 702.713C131.649 689.422 132.555 679.774 140.919 673.77L146.261 670.066C149.242 668.204 151.822 667.645 154.003 668.388C156.394 669.19 162.827 675.695 173.301 687.905C181.472 697.408 187.499 703.478 191.382 706.115L168.628 721.892C160.054 727.837 152.64 726.521 146.386 717.944C145.471 716.528 144.661 715.143 143.956 713.787L128.523 724.488C134.138 734.943 140.754 741.629 148.372 744.546C146.183 752.418 147.047 760.121 150.964 767.654L166.595 756.816C164.822 752.715 165.941 749.172 169.952 746.186L224.166 708.596C232.608 702.742 238.076 693.929 240.57 682.156C242.771 671.201 241.169 660.526 235.764 650.13L220.529 660.693C224.21 667.775 224.445 674.786 221.234 681.727C219.536 685.364 217.104 688.28 213.938 690.475L210.179 693.082C206.881 695.368 198.396 689.056 184.722 674.145C172.383 660.767 165.06 653.239 162.752 651.56C154.8 646.62 146.537 647.122 137.963 653.067L128.465 659.653ZM184.887 622.684L188.041 643.249C195.428 638.127 202.374 638.026 208.879 642.944C211.266 644.774 213.203 647.12 214.692 649.983L230.125 639.282C224.72 628.886 216.801 622.283 206.368 619.473C198.379 617.223 191.219 618.293 184.887 622.684Z" fill="black"/>
<path d="M171.608 807.884L311.299 711.026L321.756 731.14L182.065 827.998L171.608 807.884Z" fill="black"/>
<path d="M-65.3537 627.595L-22.3463 597.774C-16.0091 593.561 -8.51644 592.785 0.131734 595.447C8.5949 598.056 14.9977 603.538 19.3401 611.891L27.5081 627.602L13.4044 637.381L5.33989 621.869C2.51386 616.432 -1.94268 613.48 -8.02973 613.011C-10.7613 612.92 -12.9977 613.479 -14.7388 614.686L-56.5274 643.661C-60.2419 646.237 -62.1934 650.837 -62.3818 657.461C-62.5595 661.372 -61.8901 664.786 -60.3737 667.703L-52.4125 683.017L-66.5162 692.796L-74.3739 677.681C-80.5085 665.881 -80.7954 653.634 -75.2348 640.939C-72.478 634.699 -69.1843 630.251 -65.3537 627.595ZM-61.5534 702.342L61.6521 617.185L70.5437 634.289L-52.5583 719.645L-61.5534 702.342Z" fill="black"/>
<path d="M74.1071 683.064C77.7056 680.569 81.2588 680.721 84.7667 683.52C85.9203 684.524 86.8417 685.689 87.531 687.014C89.5988 690.992 89.4901 695.036 87.2049 699.146C86.3198 700.481 85.2969 701.551 84.1361 702.356C80.6537 704.77 77.135 704.685 73.5799 702.099C72.4263 701.095 71.5049 699.93 70.8156 698.604C68.6788 694.494 68.7531 690.384 71.0383 686.274C71.9234 684.939 72.9463 683.869 74.1071 683.064ZM-32.2523 758.705L59.5084 695.081L68.1933 711.787L-23.5674 775.411L-32.2523 758.705Z" fill="black"/>
<path d="M-37.231 833.425L-21.4785 828.185L-2.04094 865.574C2.05116 872.838 7.43094 876.503 14.0984 876.57C16.2749 876.504 18.0016 876.028 19.2785 875.143L31.8151 866.45C25.6227 863.349 20.9975 859.16 17.9393 853.885L31.3464 844.589C34.3792 850.423 38.9392 853.574 45.0262 854.043C47.8267 854.266 50.2136 853.693 52.187 852.325L94.8461 822.746C99.2571 819.688 101.292 814.489 100.951 807.15C100.733 803.693 99.9349 800.639 98.5563 797.987L112.312 788.45C115.413 794.416 116.511 800.78 115.604 807.542C115.626 807.887 115.613 808.167 115.566 808.38L120.79 804.758L129.165 820.867L27.6532 891.252C22.6618 894.713 16.1522 895.709 8.12434 894.241C-1.86963 892.332 -9.40605 886.644 -14.4849 877.179L-37.231 833.425ZM22.1328 794.969L65.6625 764.787C71.1871 761.137 77.9743 760.219 86.0239 762.033C95.4374 764.344 102.684 770.233 107.763 779.699L94.0071 789.236C90.6297 782.74 85.6417 779.524 79.0432 779.59C76.6816 779.604 74.8044 780.094 73.4114 781.06L30.5782 810.759C27.0958 813.174 25.0881 817.362 24.555 823.323C24.2831 827.66 25.1466 831.752 27.1455 835.597L13.3901 845.134C7.1648 832.856 6.86696 820.436 12.4965 807.874C15.2061 801.847 18.4182 797.545 22.1328 794.969Z" fill="black"/>
<path d="M160.728 849.686C164.327 847.191 167.88 847.343 171.388 850.142C172.542 851.146 173.463 852.311 174.152 853.636C176.22 857.614 176.111 861.658 173.826 865.768C172.941 867.103 171.918 868.173 170.757 868.978C167.275 871.392 163.756 871.307 160.201 868.721C159.048 867.717 158.126 866.552 157.437 865.226C155.3 861.116 155.374 857.006 157.66 852.896C158.545 851.561 159.568 850.491 160.728 849.686ZM54.369 925.327L146.13 861.703L154.815 878.409L63.0539 942.033L54.369 925.327Z" fill="black"/>
<path d="M159.825 921.31L173.929 911.531L180.753 924.657L210.875 903.771L219.663 920.676L189.541 941.562L196.158 954.29L181.88 964.19L175.263 951.462L125.291 986.111C117.049 991.825 114.463 998.85 117.532 1007.18C118.058 1008.8 118.7 1010.34 119.459 1011.8L120.906 1014.58L108.07 1028.63L104.348 1021.47C95.9864 1005.08 96.122 991.364 104.755 980.328C108.013 976.265 112.543 972.222 118.347 968.198L166.649 934.436L159.825 921.31Z" fill="black"/>
<path d="M144.526 1041.34C138.141 1045.76 134.605 1053.09 133.916 1063.3C133.372 1071.98 135.237 1080.43 139.51 1088.65L153.091 1079.23C147.327 1067.53 148.125 1059.04 155.485 1053.76L160.186 1050.5C162.809 1048.86 165.08 1048.37 166.999 1049.02C169.103 1049.73 174.763 1055.45 183.981 1066.2C191.172 1074.56 196.475 1079.9 199.892 1082.22L179.869 1096.11C172.324 1101.34 165.799 1100.18 160.296 1092.63C159.491 1091.39 158.778 1090.17 158.158 1088.97L144.576 1098.39C149.517 1107.59 155.34 1113.48 162.044 1116.04C160.117 1122.97 160.878 1129.75 164.324 1136.38L178.079 1126.84C176.519 1123.23 177.504 1120.11 181.034 1117.49L228.742 1084.41C236.171 1079.26 240.983 1071.5 243.178 1061.14C245.114 1051.5 243.705 1042.1 238.949 1032.96L225.542 1042.25C228.781 1048.48 228.988 1054.65 226.162 1060.76C224.668 1063.96 222.528 1066.53 219.742 1068.46L216.434 1070.75C213.532 1072.77 206.064 1067.21 194.031 1054.09C183.174 1042.32 176.729 1035.69 174.698 1034.21C167.7 1029.87 160.428 1030.31 152.883 1035.54L144.526 1041.34ZM194.177 1008.8L196.952 1026.9C203.453 1022.39 209.565 1022.3 215.29 1026.63C217.39 1028.24 219.095 1030.31 220.405 1032.83L233.986 1023.41C229.23 1014.26 222.261 1008.45 213.08 1005.98C206.05 1004 199.749 1004.94 194.177 1008.8Z" fill="black"/>
<path d="M182.492 1171.78L305.42 1086.54L314.621 1104.24L191.693 1189.48L182.492 1171.78Z" fill="black"/>
<path d="M560.468 831.204L573.566 822.122C575.496 820.839 577.778 820.603 580.411 821.413C582.989 822.208 584.939 823.877 586.261 826.421L588.749 831.206L584.454 834.184L581.997 829.46C581.137 827.805 579.78 826.905 577.926 826.762C577.094 826.735 576.413 826.905 575.883 827.273L563.156 836.097C562.025 836.881 561.431 838.282 561.373 840.3C561.319 841.491 561.523 842.53 561.985 843.419L564.409 848.082L560.114 851.061L557.721 846.457C555.853 842.864 555.765 839.134 557.459 835.268C558.298 833.367 559.301 832.013 560.468 831.204ZM561.625 853.968L599.147 828.034L601.855 833.243L564.365 859.237L561.625 853.968Z" fill="black"/>
<path d="M602.94 848.097C604.036 847.337 605.118 847.383 606.187 848.236C606.538 848.541 606.818 848.896 607.028 849.3C607.658 850.511 607.625 851.743 606.929 852.994C606.66 853.401 606.348 853.727 605.995 853.972C604.934 854.707 603.862 854.681 602.78 853.894C602.428 853.588 602.148 853.233 601.938 852.83C601.287 851.578 601.31 850.326 602.006 849.075C602.275 848.668 602.587 848.342 602.94 848.097ZM570.549 871.133L598.494 851.756L601.139 856.844L573.194 876.221L570.549 871.133Z" fill="black"/>
<path d="M569.033 893.889L573.83 892.293L579.75 903.679C580.996 905.892 582.634 907.008 584.665 907.028C585.328 907.008 585.854 906.863 586.242 906.594L590.06 903.946C588.175 903.002 586.766 901.726 585.835 900.12L589.918 897.288C590.841 899.065 592.23 900.025 594.084 900.168C594.937 900.236 595.664 900.061 596.265 899.645L609.256 890.636C610.6 889.705 611.219 888.122 611.115 885.887C611.049 884.834 610.806 883.904 610.386 883.096L614.575 880.192C615.52 882.009 615.854 883.947 615.578 886.006C615.585 886.111 615.581 886.196 615.566 886.261L617.157 885.158L619.708 890.064L588.793 911.5C587.273 912.554 585.29 912.857 582.845 912.41C579.802 911.828 577.507 910.096 575.96 907.214L569.033 893.889ZM587.112 882.177L600.368 872.985C602.051 871.874 604.118 871.594 606.569 872.146C609.436 872.85 611.643 874.644 613.19 877.527L609.001 880.431C607.972 878.453 606.453 877.473 604.443 877.493C603.724 877.498 603.153 877.647 602.728 877.941L589.684 886.986C588.623 887.721 588.012 888.997 587.849 890.812C587.767 892.133 588.03 893.379 588.638 894.55L584.449 897.455C582.553 893.715 582.463 889.933 584.177 886.107C585.002 884.271 585.98 882.961 587.112 882.177Z" fill="black"/>
<path d="M629.32 898.841C630.416 898.081 631.498 898.127 632.567 898.98C632.918 899.285 633.199 899.64 633.409 900.044C634.038 901.255 634.005 902.487 633.309 903.738C633.04 904.145 632.728 904.471 632.375 904.716C631.314 905.451 630.242 905.425 629.16 904.638C628.808 904.332 628.528 903.977 628.318 903.574C627.667 902.322 627.69 901.07 628.386 899.818C628.655 899.412 628.967 899.086 629.32 898.841ZM596.929 921.877L624.874 902.5L627.519 907.588L599.574 926.965L596.929 921.877Z" fill="black"/>
<path d="M629.045 920.653L633.34 917.675L635.419 921.673L644.592 915.312L647.269 920.46L638.095 926.821L640.11 930.697L635.762 933.712L633.747 929.836L618.528 940.388C616.018 942.129 615.23 944.268 616.165 946.806C616.325 947.299 616.521 947.768 616.752 948.212L617.193 949.06L613.284 953.336L612.15 951.155C609.603 946.164 609.645 941.988 612.274 938.627C613.266 937.39 614.646 936.159 616.413 934.933L631.123 924.651L629.045 920.653Z" fill="black"/>
<path d="M495.371 876.588C493.426 877.936 492.349 880.166 492.14 883.278C491.974 885.92 492.542 888.492 493.843 890.996L497.979 888.128C496.224 884.566 496.467 881.98 498.708 880.371L500.14 879.378C500.939 878.88 501.63 878.73 502.215 878.929C502.856 879.144 504.58 880.887 507.387 884.159C509.577 886.706 511.192 888.333 512.233 889.04L506.134 893.268C503.837 894.861 501.85 894.508 500.174 892.21C499.928 891.83 499.711 891.459 499.522 891.096L495.386 893.964C496.891 896.766 498.664 898.557 500.706 899.339C500.119 901.449 500.351 903.513 501.4 905.532L505.589 902.627C505.114 901.529 505.414 900.579 506.489 899.779L521.019 889.704C523.281 888.136 524.747 885.774 525.415 882.619C526.005 879.683 525.575 876.822 524.127 874.036L520.044 876.867C521.03 878.764 521.093 880.643 520.233 882.504C519.778 883.478 519.126 884.26 518.278 884.848L517.27 885.547C516.386 886.16 514.112 884.468 510.448 880.472C507.141 876.886 505.178 874.869 504.56 874.419C502.428 873.095 500.214 873.23 497.916 874.823L495.371 876.588ZM510.492 866.68L511.337 872.192C513.317 870.819 515.178 870.792 516.922 872.11C517.561 872.6 518.081 873.229 518.479 873.996L522.616 871.128C521.167 868.342 519.045 866.573 516.249 865.82C514.108 865.217 512.189 865.503 510.492 866.68Z" fill="black"/>
<path d="M506.933 916.314L544.37 890.356L547.173 895.746L509.736 921.704L506.933 916.314Z" fill="black"/>
<path d="M298.892 789.2L316.095 777.272C318.629 775.586 321.627 775.276 325.086 776.341C328.471 777.385 331.032 779.577 332.769 782.918L336.036 789.203L330.395 793.115L327.169 786.909C326.039 784.735 324.256 783.554 321.821 783.366C320.729 783.33 319.834 783.554 319.138 784.037L302.422 795.627C300.936 796.657 300.156 798.497 300.08 801.146C300.009 802.711 300.277 804.077 300.884 805.243L304.068 811.369L298.427 815.28L295.284 809.234C292.83 804.514 292.715 799.616 294.939 794.538C296.042 792.042 297.359 790.262 298.892 789.2ZM300.412 819.099L349.694 785.036L353.251 791.878L304.01 826.02L300.412 819.099Z" fill="black"/>
<path d="M354.676 811.388C356.115 810.39 357.537 810.45 358.94 811.57C359.401 811.971 359.77 812.437 360.046 812.968C360.873 814.559 360.829 816.176 359.915 817.82C359.561 818.354 359.152 818.782 358.688 819.104C357.295 820.07 355.887 820.036 354.465 819.002C354.004 818.6 353.635 818.134 353.359 817.604C352.505 815.96 352.534 814.316 353.448 812.672C353.802 812.138 354.212 811.71 354.676 811.388ZM312.132 841.644L348.836 816.194L352.31 822.877L315.606 848.326L312.132 841.644Z" fill="black"/>
<path d="M310.141 871.532L316.442 869.436L324.217 884.392C325.854 887.297 328.005 888.763 330.672 888.79C331.543 888.764 332.234 888.573 332.744 888.219L337.759 884.742C335.282 883.501 333.432 881.826 332.209 879.716L337.572 875.997C338.785 878.331 340.609 879.592 343.044 879.779C344.164 879.868 345.119 879.639 345.908 879.092L362.972 867.261C364.736 866.037 365.55 863.958 365.413 861.022C365.326 859.639 365.007 858.418 364.456 857.357L369.958 853.542C371.198 855.928 371.637 858.474 371.275 861.179C371.284 861.317 371.278 861.429 371.26 861.514L373.349 860.065L376.699 866.509L336.094 894.663C334.098 896.047 331.494 896.446 328.283 895.858C324.285 895.095 321.271 892.82 319.239 889.033L310.141 871.532ZM333.886 856.15L351.298 844.077C353.508 842.617 356.223 842.25 359.443 842.975C363.208 843.9 366.107 846.255 368.138 850.042L362.636 853.857C361.285 851.258 359.29 849.972 356.65 849.998C355.706 850.004 354.955 850.2 354.398 850.586L337.264 862.466C335.871 863.431 335.068 865.107 334.855 867.491C334.746 869.226 335.092 870.863 335.891 872.401L330.389 876.216C327.899 871.304 327.78 866.336 330.032 861.312C331.116 858.901 332.4 857.18 333.886 856.15Z" fill="black"/>
<path d="M389.324 878.036C390.764 877.038 392.185 877.099 393.588 878.219C394.05 878.62 394.418 879.086 394.694 879.616C395.521 881.208 395.478 882.825 394.564 884.469C394.209 885.003 393.8 885.431 393.336 885.753C391.943 886.719 390.536 886.685 389.114 885.65C388.652 885.249 388.284 884.783 388.008 884.252C387.153 882.608 387.183 880.964 388.097 879.32C388.451 878.786 388.86 878.358 389.324 878.036ZM346.781 908.293L383.485 882.843L386.959 889.525L350.255 914.975L346.781 908.293Z" fill="black"/>
<path d="M388.963 906.686L394.605 902.774L397.334 908.025L409.383 899.67L412.898 906.432L400.849 914.787L403.496 919.878L397.785 923.838L395.138 918.747L375.149 932.606C371.853 934.892 370.818 937.702 372.046 941.035C372.256 941.683 372.513 942.299 372.816 942.882L373.395 943.996L368.261 949.612L366.772 946.748C363.428 940.193 363.482 934.708 366.935 930.293C368.238 928.668 370.05 927.051 372.372 925.441L391.693 911.936L388.963 906.686Z" fill="black"/>
<path d="M214.008 848.381C211.454 850.152 210.039 853.08 209.764 857.168C209.546 860.638 210.292 864.017 212.001 867.305L217.434 863.538C215.128 858.86 215.447 855.464 218.391 853.35L220.272 852.046C221.321 851.391 222.229 851.194 222.997 851.456C223.838 851.738 226.103 854.028 229.79 858.326C232.666 861.671 234.787 863.807 236.154 864.736L228.145 870.289C225.127 872.382 222.517 871.918 220.316 868.899C219.994 868.401 219.709 867.913 219.46 867.436L214.028 871.203C216.004 874.883 218.333 877.237 221.015 878.263C220.244 881.034 220.548 883.745 221.927 886.397L227.429 882.582C226.805 881.139 227.199 879.892 228.611 878.841L247.694 865.609C250.666 863.548 252.591 860.446 253.468 856.302C254.243 852.446 253.679 848.688 251.777 845.029L246.414 848.747C247.71 851.24 247.793 853.708 246.662 856.151C246.065 857.431 245.209 858.458 244.094 859.23L242.771 860.148C241.61 860.953 238.623 858.731 233.81 853.482C229.467 848.773 226.889 846.123 226.076 845.532C223.277 843.793 220.369 843.97 217.351 846.063L214.008 848.381ZM233.868 835.368L234.978 842.607C237.579 840.804 240.023 840.768 242.313 842.499C243.153 843.143 243.835 843.969 244.359 844.977L249.792 841.21C247.889 837.551 245.102 835.227 241.429 834.238C238.617 833.446 236.097 833.822 233.868 835.368Z" fill="black"/>
<path d="M229.194 900.558L278.365 866.464L282.046 873.544L232.875 907.638L229.194 900.558Z" fill="black"/>
<path d="M-80.861 -201.44L-54.3742 -220.854C-50.4724 -223.599 -45.8854 -224.157 -40.6131 -222.528C-35.4536 -220.93 -31.5721 -217.48 -28.9684 -212.178L-24.0709 -202.205L-32.7569 -195.838L-37.5923 -205.685C-39.2868 -209.136 -41.9939 -210.986 -45.7135 -211.235C-47.3834 -211.27 -48.7546 -210.895 -49.8269 -210.109L-75.5631 -191.245C-77.8508 -189.568 -79.0728 -186.613 -79.2293 -182.377C-79.3622 -179.876 -78.9741 -177.7 -78.0648 -175.849L-73.2914 -166.128L-81.9774 -159.761L-86.6888 -169.356C-90.3671 -176.846 -90.4664 -184.671 -86.9868 -192.83C-85.2621 -196.841 -83.2201 -199.711 -80.861 -201.44ZM-79.0017 -153.702L-3.12518 -209.145L2.2062 -198.288L-73.6083 -142.718L-79.0017 -153.702Z" fill="black"/>
<path d="M4.0821 -167.146C6.29827 -168.77 8.4703 -168.703 10.5982 -166.943C11.2974 -166.311 11.8537 -165.574 12.267 -164.733C13.5068 -162.208 13.4152 -159.623 11.9921 -156.977C11.4425 -156.117 10.8103 -155.424 10.0954 -154.9C7.95072 -153.328 5.79935 -153.354 3.6413 -154.977C2.94206 -155.609 2.3858 -156.346 1.97251 -157.187C0.691325 -159.796 0.762285 -162.424 2.18539 -165.069C2.73497 -165.93 3.36721 -166.622 4.0821 -167.146ZM-61.4329 -117.924L-4.92055 -159.346L0.286842 -148.741L-56.2256 -107.32L-61.4329 -117.924Z" fill="black"/>
<path d="M-64.9424 -70.1306L-55.2763 -73.6102L-43.6216 -49.8763C-41.1642 -45.268 -37.897 -42.9701 -33.8199 -42.9826C-32.4884 -43.0429 -31.4295 -43.3612 -30.6431 -43.9376L-22.9222 -49.5967C-26.6899 -51.5278 -29.4925 -54.1663 -31.3299 -57.5122L-23.0729 -63.5643C-21.2544 -59.8611 -18.4854 -57.8848 -14.7657 -57.6354C-13.0545 -57.5162 -11.5912 -57.902 -10.3758 -58.7928L15.8965 -78.0495C18.6131 -80.0407 19.8899 -83.38 19.7269 -88.0677C19.6152 -90.2749 19.1461 -92.2202 18.3195 -93.9034L26.791 -100.113C28.6508 -96.3254 29.2824 -92.2674 28.6859 -87.9387C28.697 -87.7179 28.6875 -87.5393 28.6574 -87.4027L31.8744 -89.7607L36.8958 -79.5349L-25.6217 -33.7119C-28.6957 -31.4587 -32.6829 -30.7681 -37.5832 -31.6401C-43.6832 -32.7773 -48.2568 -36.3496 -51.3039 -42.3569L-64.9424 -70.1306ZM-28.399 -95.1987L-1.59046 -114.848C1.81087 -117.227 5.96728 -117.87 10.8788 -116.777C16.6213 -115.378 21.0162 -111.675 24.0633 -105.667L15.5918 -99.4582C13.5667 -103.582 10.5363 -105.596 6.50052 -105.499C5.05622 -105.471 3.90514 -105.142 3.04726 -104.513L-23.3323 -85.1778C-25.477 -83.6058 -26.7309 -80.9127 -27.094 -77.0985C-27.2872 -74.3244 -26.7846 -71.717 -25.5861 -69.2762L-34.0576 -63.0669C-37.7883 -70.8623 -37.8932 -78.7973 -34.3723 -86.8718C-32.6778 -90.7463 -30.6867 -93.522 -28.399 -95.1987Z" fill="black"/>
<path d="M56.0197 -61.3787C58.2358 -63.0031 60.4079 -62.9355 62.5358 -61.176C63.235 -60.544 63.7913 -59.8071 64.2046 -58.9655C65.4444 -56.4406 65.3528 -53.8555 63.9297 -51.21C63.3801 -50.3494 62.7479 -49.657 62.033 -49.133C59.8883 -47.5611 57.7369 -47.5866 55.5789 -49.2095C54.8796 -49.8416 54.3234 -50.5784 53.9101 -51.42C52.6289 -54.0291 52.6998 -56.6563 54.123 -59.3018C54.6725 -60.1624 55.3048 -60.8547 56.0197 -61.3787ZM-9.49538 -12.1568L47.017 -53.5783L52.2244 -42.9738L-4.28799 -1.55229L-9.49538 -12.1568Z" fill="black"/>
<path d="M55.0219 -15.5979L63.7078 -21.9644L67.7994 -13.6323L86.3509 -27.2299L91.6203 -16.4991L73.0688 -2.90153L77.0363 5.17811L68.2431 11.6232L64.2756 3.54357L33.4994 26.1014C28.4236 29.8217 26.7983 34.3322 28.6235 39.6329C28.9351 40.6635 29.3182 41.6417 29.7728 42.5674L30.6407 44.3349L22.7037 53.4144L20.4719 48.8696C15.46 38.4652 15.6282 29.7005 20.9766 22.5757C22.9939 19.9525 25.7898 17.3309 29.3643 14.7109L59.1134 -7.26577L55.0219 -15.5979Z" fill="black"/>
<path d="M44.919 61.2356C40.9871 64.1176 38.7787 68.8265 38.2938 75.3625C37.9073 80.9107 38.9952 86.2939 41.5575 91.512L49.9218 85.3813C46.4692 77.9543 47.0099 72.522 51.5439 69.0843L54.4392 66.9621C56.0533 65.8935 57.4451 65.5601 58.6146 65.9619C59.8969 66.3955 63.3233 70.0074 68.8938 76.7976C73.2389 82.0825 76.4492 85.4522 78.5246 86.9069L66.1927 95.9457C61.5458 99.3517 57.5631 98.6655 54.2445 93.8873C53.7598 93.098 53.3314 92.3247 52.9594 91.5672L44.5952 97.6979C47.5597 103.537 51.0838 107.249 55.1676 108.834C53.9466 113.277 54.3694 117.602 56.4358 121.811L64.9073 115.601C63.9757 113.308 64.5974 111.307 66.7722 109.599L96.1544 88.0629C100.73 84.7093 103.721 79.713 105.127 73.0738C106.371 66.8968 105.568 60.9047 102.716 55.0974L94.4591 61.1495C96.4015 65.1052 96.4897 69.0465 94.7237 72.9734C93.7898 75.0313 92.465 76.6891 90.7493 77.9466L88.7118 79.44C86.9246 80.75 82.3923 77.2619 75.1151 68.9757C68.5483 61.5423 64.6483 57.3618 63.4151 56.4344C59.1626 53.7141 54.713 54.0569 50.0662 57.4629L44.919 61.2356ZM75.4857 40.0331L77.0706 51.5759C81.074 48.6415 84.8127 48.5337 88.2866 51.2524C89.5611 52.264 90.5909 53.5693 91.3762 55.1684L99.7404 49.0377C96.8888 43.2305 92.6631 39.5749 87.0636 38.0708C82.7765 36.8638 78.9172 37.5179 75.4857 40.0331Z" fill="black"/>
<path d="M67.3261 144.285L143.033 88.7941L148.551 100.03L72.8435 155.521L67.3261 144.285Z" fill="black"/>
</svg>
